<svg width="220" height="180" viewBox="0 0 220 180" fill="none" xmlns="http://www.w3.org/2000/svg">
<g opacity="0.9">
<path d="M190.289 119.49C173.898 119.49 160.577 106.261 160.577 90.0053C160.577 73.7495 173.898 60.5204 190.289 60.5204C206.679 60.5204 220 73.7495 220 90.0053C220 106.261 206.679 119.49 190.289 119.49ZM190.289 61.4305C174.41 61.4305 161.494 74.2575 161.494 90.0053C161.494 105.774 174.41 118.58 190.289 118.58C206.167 118.58 219.084 105.753 219.084 90.0053C219.105 74.2363 206.189 61.4305 190.289 61.4305Z" fill="#EC681C" fill-opacity="0.5"/>
<path d="M185.578 121.268C184.555 121.268 183.511 121.226 182.467 121.12C174.09 120.295 166.545 116.294 161.195 109.838C155.867 103.382 153.373 95.2546 154.183 86.9361C155.888 69.7701 171.319 57.1972 188.626 58.8905C197.002 59.716 204.548 63.7165 209.897 70.1722C215.226 76.628 217.719 84.756 216.909 93.0744C215.311 109.182 201.564 121.268 185.578 121.268ZM182.552 120.231C199.326 121.861 214.352 109.648 215.993 92.9897C216.803 84.9253 214.373 77.0302 209.194 70.7437C204.015 64.4785 196.683 60.5838 188.541 59.8007C171.767 58.1497 156.741 70.3839 155.1 87.042C154.29 95.1064 156.72 103.002 161.899 109.288C167.099 115.532 174.431 119.427 182.552 120.231Z" fill="#EC681C" fill-opacity="0.5"/>
<path d="M180.825 123.321C178.779 123.321 176.712 123.131 174.644 122.75C165.842 121.12 158.19 116.167 153.118 108.843C148.045 101.499 146.169 92.6511 147.81 83.8882C151.199 65.8331 168.783 53.8952 186.964 57.2607C195.766 58.8905 203.418 63.8435 208.491 71.1671C213.563 78.5119 215.439 87.3595 213.798 96.1013C210.792 112.124 196.661 123.321 180.825 123.321ZM180.804 57.5994C165.394 57.5994 151.647 68.5001 148.706 84.0575C147.107 92.5664 148.94 101.181 153.864 108.335C158.787 115.469 166.225 120.295 174.815 121.882C192.527 125.163 209.599 113.542 212.924 95.9743C214.522 87.4653 212.689 78.8505 207.766 71.6963C202.842 64.5631 195.404 59.7372 186.815 58.1497C184.79 57.7687 182.786 57.5994 180.804 57.5994Z" fill="#EC681C" fill-opacity="0.5"/>
<path d="M176.073 125.586C173.025 125.586 169.934 125.205 166.844 124.38C157.594 121.924 149.857 116.061 145.061 107.828C140.265 99.6149 138.987 90.0265 141.459 80.8402C146.553 61.8962 166.226 50.5721 185.323 55.6309C194.573 58.0862 202.31 63.9494 207.105 72.1831C211.901 80.3957 213.18 89.9842 210.707 99.1704C206.445 115.066 191.909 125.586 176.073 125.586ZM167.078 123.512C185.706 128.444 204.867 117.416 209.833 98.9376C212.242 89.9842 210.984 80.6497 206.317 72.6276C201.649 64.6055 194.104 58.8906 185.088 56.4987C166.46 51.5881 147.278 62.5947 142.312 81.0731C139.903 90.0265 141.161 99.3609 145.828 107.383C150.517 115.384 158.062 121.12 167.078 123.512Z" fill="#EC681C" fill-opacity="0.5"/>
<path d="M171.298 128.02C167.227 128.02 163.092 127.364 159.022 126.01C149.324 122.75 141.502 115.934 136.983 106.833C132.465 97.7311 131.783 87.423 135.065 77.8134C141.843 57.9592 163.647 47.3125 183.639 54.0222C193.337 57.2819 201.159 64.0975 205.677 73.1991C210.196 82.3007 210.878 92.6088 207.595 102.218C202.203 118.03 187.262 128.02 171.298 128.02ZM159.32 125.142C178.843 131.725 200.114 121.289 206.743 101.922C209.961 92.5453 209.279 82.47 204.867 73.5801C200.455 64.6902 192.804 58.0439 183.34 54.8477C163.817 48.265 142.546 58.6789 135.918 78.0674C132.699 87.4442 133.381 97.5194 137.793 106.409C142.226 115.32 149.857 121.967 159.32 125.142Z" fill="#EC681C" fill-opacity="0.5"/>
<path d="M166.545 130.603C161.43 130.603 156.251 129.65 151.221 127.618C141.097 123.554 133.168 115.807 128.927 105.817C124.664 95.826 124.579 84.7983 128.692 74.7442C137.175 54.001 161.068 43.9681 181.976 52.3712C192.1 56.4352 200.029 64.1821 204.271 74.1727C208.533 84.1633 208.618 95.191 204.505 105.245C198.068 121.014 182.701 130.603 166.545 130.603ZM166.652 50.318C150.837 50.318 135.832 59.6948 129.523 75.104C125.516 84.9253 125.58 95.7202 129.758 105.478C133.935 115.236 141.672 122.813 151.562 126.793C172.002 135.005 195.383 125.205 203.652 104.928C207.659 95.1064 207.595 84.3115 203.418 74.5537C199.24 64.7959 191.504 57.2183 181.614 53.239C176.712 51.2494 171.639 50.318 166.652 50.318Z" fill="#EC681C" fill-opacity="0.5"/>
<path d="M161.792 133.291C155.633 133.291 149.366 132 143.42 129.248C132.848 124.359 124.834 115.68 120.849 104.822C116.863 93.9635 117.375 82.1949 122.298 71.7175C132.465 50.0853 158.467 40.6874 180.271 50.7626C190.843 55.6521 198.857 64.3304 202.843 75.1888C206.828 86.0472 206.317 97.8158 201.393 108.293C193.997 124.041 178.225 133.291 161.792 133.291ZM143.804 128.444C165.16 138.307 190.63 129.121 200.583 107.933C205.4 97.6676 205.912 86.153 202.011 75.5063C198.111 64.8595 190.267 56.3718 179.909 51.5881C158.553 41.7034 133.083 50.9108 123.129 72.0985C118.312 82.3642 117.801 93.8788 121.701 104.526C125.602 115.172 133.466 123.66 143.804 128.444Z" fill="#EC681C" fill-opacity="0.5"/>
<path d="M157.039 136.106C149.814 136.106 142.461 134.434 135.619 130.878C124.621 125.184 116.522 115.574 112.792 103.827C109.062 92.0796 110.192 79.5913 115.925 68.6906C127.776 46.1482 155.888 37.3853 178.609 49.1539C189.607 54.8477 197.706 64.4573 201.436 76.2047C205.166 87.9521 204.036 100.44 198.303 111.341C190.012 127.068 173.792 136.106 157.039 136.106ZM157.189 44.8147C140.756 44.8147 124.856 53.6623 116.735 69.0927C111.108 79.803 110.021 92.0372 113.666 103.552C117.311 115.066 125.261 124.485 136.045 130.073C158.318 141.609 185.877 133.016 197.493 110.918C203.12 100.208 204.207 87.9732 200.562 76.4587C196.917 64.9441 188.967 55.525 178.183 49.937C171.469 46.4657 164.265 44.8147 157.189 44.8147Z" fill="#EC681C" fill-opacity="0.5"/>
<path d="M152.286 138.985C143.974 138.985 135.534 136.889 127.818 132.508C116.373 126.01 108.188 115.469 104.735 102.832C101.283 90.1958 102.988 77.0091 109.552 65.6427C123.087 42.2114 153.288 34.0834 176.904 47.503C188.349 54.0011 196.534 64.542 199.986 77.1784C203.439 89.8148 201.734 103.002 195.17 114.368C186.09 130.137 169.401 138.985 152.286 138.985ZM152.457 41.9362C135.64 41.9362 119.271 50.6145 110.341 66.1084C103.904 77.2419 102.22 90.217 105.609 102.599C108.998 115.003 117.055 125.332 128.287 131.725C151.455 144.911 181.124 136.931 194.424 113.924C200.86 102.79 202.544 89.8148 199.155 77.4324C195.766 65.0289 187.71 54.6996 176.477 48.3073C168.89 43.9894 160.62 41.9362 152.457 41.9362Z" fill="#EC681C" fill-opacity="0.5"/>
<path d="M147.533 141.927C138.113 141.927 128.586 139.408 120.017 134.137C108.146 126.814 99.8547 115.363 96.6576 101.859C93.4819 88.3543 95.7838 74.4267 103.158 62.637C118.376 38.3167 150.709 30.8026 175.22 45.8943C187.092 53.2179 195.383 64.669 198.58 78.1732C201.755 91.6774 199.454 105.605 192.079 117.395C182.19 133.206 165.053 141.927 147.533 141.927ZM120.508 133.354C144.592 148.192 176.371 140.826 191.312 116.908C198.558 105.33 200.818 91.6351 197.685 78.3637C194.551 65.0923 186.41 53.8317 174.73 46.6351C150.645 31.7974 118.867 39.1633 103.926 63.0815C96.679 74.6596 94.4197 88.3543 97.5528 101.626C100.686 114.897 108.828 126.179 120.508 133.354Z" fill="#EC681C" fill-opacity="0.5"/>
<path d="M142.802 144.932C132.273 144.932 121.637 141.969 112.238 135.767C99.9186 127.639 91.5423 115.236 88.6223 100.864C85.7024 86.4705 88.601 71.8233 96.7855 59.6102C113.687 34.3797 148.109 27.5006 173.536 44.2856C185.855 52.4136 194.232 64.796 197.152 79.1892C200.072 93.5824 197.173 108.23 188.989 120.443C178.332 136.318 160.727 144.932 142.802 144.932ZM112.728 135.005C137.729 151.494 171.597 144.742 188.221 119.914C196.278 107.891 199.134 93.4766 196.257 79.3374C193.379 65.177 185.131 52.9851 173.025 45.0053C148.024 28.5166 114.156 35.2687 97.5315 60.0759C89.4749 72.0984 86.6189 86.5128 89.4962 100.652C92.3735 114.812 100.622 127.004 112.728 135.005Z" fill="#EC681C" fill-opacity="0.5"/>
<path d="M138.07 147.98C126.412 147.98 114.668 144.551 104.458 137.376C91.7128 128.444 83.2299 115.109 80.5657 99.8477C77.9228 84.5866 81.4183 69.1986 90.4127 56.5622C108.998 30.4427 145.53 24.1986 171.852 42.6346C184.598 51.5669 193.081 64.9018 195.745 80.1628C198.388 95.4239 194.892 110.812 185.898 123.448C174.517 139.429 156.421 147.98 138.07 147.98ZM104.97 136.656C130.887 154.817 166.844 148.658 185.152 122.94C194.019 110.473 197.45 95.3392 194.85 80.311C192.25 65.2828 183.895 52.1595 171.341 43.3754C145.423 25.2146 109.446 31.374 91.1586 57.0913C82.2921 69.5373 78.8393 84.6713 81.4396 99.6995C84.0612 114.728 92.4162 127.851 104.97 136.656Z" fill="#EC681C" fill-opacity="0.5"/>
<path d="M133.338 151.071C120.55 151.071 107.677 147.155 96.6576 139.006C83.4644 129.269 74.8963 115.003 72.5092 98.874C70.1221 82.724 74.2143 66.6374 84.0399 53.5354C104.309 26.5057 142.951 20.8966 170.169 41.0048C183.362 50.7414 191.93 65.0076 194.317 81.1365C196.704 97.2866 192.612 113.373 182.786 126.475C170.723 142.562 152.137 151.071 133.338 151.071ZM133.488 29.85C114.945 29.85 96.6576 38.232 84.7646 54.0857C75.0881 66.9761 71.0599 82.851 73.4044 98.747C75.7489 114.643 84.2104 128.698 97.2118 138.286C124.046 158.098 162.112 152.573 182.083 125.946C191.759 113.056 195.788 97.1807 193.443 81.2847C191.099 65.3886 182.637 51.3341 169.636 41.7456C158.766 33.7023 146.063 29.85 133.488 29.85Z" fill="#EC681C" fill-opacity="0.5"/>
<path d="M128.586 154.182C114.668 154.182 100.665 149.758 88.8568 140.636C75.2374 130.095 66.5627 114.897 64.4313 97.8793C62.3213 80.8614 66.989 64.034 77.6245 50.5086C99.5776 22.59 140.308 17.5947 168.442 39.375C182.062 49.916 190.736 65.1135 192.868 82.1314C194.978 99.1493 190.31 115.977 179.675 129.502C166.95 145.716 147.853 154.182 128.586 154.182ZM128.735 26.7175C109.744 26.7175 90.9243 35.0782 78.3492 51.059C67.8628 64.3939 63.2378 80.9884 65.3265 97.7734C67.4152 114.558 75.962 129.523 89.411 139.937C117.14 161.4 157.316 156.489 178.95 128.952C189.436 115.617 194.061 99.0223 191.973 82.2372C189.884 65.4522 181.337 50.4875 167.888 40.0735C156.272 31.0778 142.461 26.7175 128.735 26.7175Z" fill="#EC681C" fill-opacity="0.5"/>
<path d="M123.854 157.357C108.785 157.357 93.6311 152.425 81.0773 142.265C67.0103 130.899 58.2504 114.791 56.3961 96.8844C54.5418 78.9776 59.8276 61.4305 71.273 47.4818C94.9099 18.6742 137.75 14.2927 166.78 37.7452C180.847 49.1116 189.607 65.2193 191.461 83.1262C193.315 101.033 188.029 118.58 176.584 132.529C163.178 148.869 143.59 157.357 123.854 157.357ZM81.6528 141.567C110.298 164.702 152.585 160.384 175.881 131.957C187.177 118.178 192.377 100.864 190.544 83.2109C188.712 65.558 180.058 49.6408 166.183 38.4437C137.537 15.3087 95.2722 19.6267 71.9551 48.0533C60.6588 61.8327 55.4583 79.1469 57.2912 96.7998C59.1242 114.453 67.7776 130.37 81.6528 141.567Z" fill="#EC681C" fill-opacity="0.5"/>
<path d="M119.122 160.532C102.902 160.532 86.6188 155.071 73.2764 143.895C58.7618 131.724 49.9166 114.685 48.3181 95.9107C46.7196 77.136 52.6021 58.8693 64.8575 44.4761C90.1782 14.7583 135.129 11.0118 165.075 36.1153C179.589 48.2861 188.434 65.3251 190.033 84.0998C191.631 102.875 185.749 121.141 173.493 135.534C159.448 152.044 139.349 160.532 119.122 160.532ZM119.229 20.3886C99.2578 20.3886 79.4361 28.7706 65.5609 45.0476C53.4547 59.2503 47.6574 77.3054 49.2346 95.8261C50.8118 114.368 59.5504 131.195 73.8732 143.197C103.435 167.983 147.81 164.3 172.79 134.963C184.896 120.76 190.694 102.726 189.116 84.1845C187.56 65.6426 178.801 48.8152 164.478 36.8138C151.327 25.7649 135.235 20.3886 119.229 20.3886Z" fill="#EC681C" fill-opacity="0.5"/>
<path d="M114.391 163.728C97.02 163.728 79.564 157.738 65.497 145.525C50.5561 132.55 41.6044 114.58 40.2616 94.9159C38.9401 75.2522 45.3982 56.2658 58.4848 41.4281C85.4679 10.8213 132.529 7.70985 163.37 34.4855C178.31 47.4606 187.262 65.4309 188.605 85.0946C189.948 104.758 183.468 123.745 170.382 138.582C155.718 155.219 135.108 163.728 114.391 163.728ZM114.476 17.1713C94.0147 17.1713 73.6602 25.5744 59.1668 42.0208C46.2507 56.668 39.8566 75.4215 41.1781 94.8524C42.4782 114.262 51.3447 132.021 66.0938 144.826C96.5724 171.285 143.036 168.194 169.7 137.947C182.616 123.3 189.01 104.547 187.688 85.1158C186.388 65.7061 177.522 47.9474 162.773 35.1416C148.876 23.0979 131.655 17.1713 114.476 17.1713Z" fill="#EC681C" fill-opacity="0.5"/>
<path d="M109.659 166.946C91.1161 166.946 72.5305 160.405 57.7175 147.134C42.329 133.354 33.2707 114.453 32.2263 93.9211C31.1606 73.3896 38.2368 53.6624 52.112 38.4013C80.7789 6.90557 129.928 4.40792 161.686 32.8557C177.074 46.6351 186.133 65.5368 187.177 86.0683C188.243 106.6 181.166 126.327 167.291 141.588C151.988 158.394 130.866 166.946 109.659 166.946ZM109.744 13.954C88.7929 13.954 67.9055 22.3995 52.7941 39.0152C39.068 54.1069 32.0985 73.5801 33.1428 93.8788C34.1872 114.177 43.1389 132.846 58.3356 146.478C89.7094 174.587 138.305 172.131 166.631 140.974C180.357 125.883 187.326 106.409 186.282 86.1107C185.237 65.812 176.286 47.1431 161.089 33.5119C146.446 20.4098 128.053 13.954 109.744 13.954Z" fill="#EC681C" fill-opacity="0.5"/>
<path d="M104.927 170.205C85.2122 170.205 65.4757 163.114 49.938 148.785C34.102 134.201 24.9584 114.368 24.1698 92.9475C23.3812 71.527 31.0328 51.1013 45.7392 35.3957C76.09 2.98981 127.328 1.106 160.002 31.2259C175.817 45.8097 184.982 65.6427 185.77 87.0632C186.559 108.484 178.907 128.909 164.201 144.615C148.279 161.59 126.625 170.205 104.927 170.205ZM50.5561 148.129C82.8464 177.91 133.53 176.047 163.54 144.001C178.076 128.486 185.642 108.272 184.854 87.0844C184.065 65.9179 175.028 46.2965 159.384 31.8821C127.072 2.12199 76.3884 3.96348 46.4 36.0096C31.864 51.5246 24.2977 71.7386 25.0863 92.9263C25.8536 114.093 34.9119 133.693 50.5561 148.129Z" fill="#EC681C" fill-opacity="0.5"/>
<path d="M100.196 173.444C79.3083 173.444 58.3995 165.803 42.1372 150.393C25.8748 135.026 16.646 114.262 16.1132 91.9738C15.5803 69.6854 23.8287 48.5189 39.3451 32.39C71.3583 -0.926036 124.728 -2.17486 158.297 29.5961C174.559 44.9841 183.809 65.7485 184.321 88.0368C184.854 110.325 176.605 131.492 161.089 147.621C144.592 164.808 122.405 173.444 100.196 173.444ZM100.238 7.4559C78.2639 7.4559 56.3321 16.0072 40.0058 33.0039C24.66 48.9634 16.4968 69.8971 17.0296 91.9526C17.5625 114.008 26.7061 134.54 42.7766 149.758C75.9833 181.191 128.756 179.963 160.45 147.007C175.795 131.047 183.959 110.113 183.426 88.058C182.893 66.0025 173.749 45.471 157.679 30.2522C141.566 15.0123 120.891 7.4559 100.238 7.4559Z" fill="#EC681C" fill-opacity="0.5"/>
<path d="M95.464 176.725C73.4043 176.725 51.3447 168.512 34.3576 152.044C17.669 135.852 8.31231 114.156 8.05654 90.979C7.80078 67.8228 16.646 45.9367 32.9509 29.3633C66.6692 -4.84179 122.127 -5.47678 156.592 27.9663C173.28 44.1587 182.637 65.8544 182.893 89.0317C183.149 112.209 174.303 134.095 157.977 150.669C140.884 168.004 118.184 176.725 95.464 176.725ZM34.9971 151.409C69.099 184.493 124.003 183.879 157.338 150.034C173.493 133.63 182.253 111.976 181.976 89.0317C181.721 66.1084 172.47 44.6455 155.952 28.6013C121.85 -4.48195 66.9676 -3.86813 33.6117 29.9771C17.4559 46.3812 8.69595 68.0345 8.95172 90.979C9.2288 113.902 18.4576 135.365 34.9971 151.409Z" fill="#EC681C" fill-opacity="0.5"/>
<path d="M90.7324 180.005C67.5005 180.005 44.2686 171.221 26.5782 153.674C9.44197 136.677 0 114.05 0 90.0053C0 65.9601 9.44197 43.3331 26.5782 26.3364C61.9589 -8.77881 119.527 -8.77881 154.908 26.3364C172.044 43.3543 181.486 65.9601 181.486 90.0053C181.486 114.05 172.044 136.677 154.908 153.674C137.196 171.221 113.964 180.005 90.7324 180.005ZM90.7324 0.894286C67.7349 0.894286 44.7161 9.59372 27.2176 26.9714C10.2519 43.7988 0.895175 66.193 0.895175 90.0053C0.895175 113.818 10.2519 136.191 27.2176 153.039C62.236 187.795 119.229 187.795 154.247 153.039C171.213 136.212 180.548 113.818 180.548 90.0053C180.548 66.193 171.213 43.7988 154.247 26.9714C136.749 9.59372 113.73 0.894286 90.7324 0.894286Z" fill="#EC681C" fill-opacity="0.5"/>
</g>
</svg>
