<svg width="86" height="85" viewBox="0 0 86 85" fill="none" xmlns="http://www.w3.org/2000/svg">
<g clip-path="url(#clip0_1_204)">
<path d="M16.7188 0.0205658C24.7463 -0.226169 29.6624 2.96082 33.3339 8.1628C41.1539 19.163 46.153 31.582 51.0898 43.9804C52.0647 46.4066 54.9894 49.3469 52.4796 51.7525C50.0319 54.1171 47.0657 51.2796 44.5765 50.3338C34.7029 46.5506 24.8915 42.6028 15.6817 37.3597C12.2591 35.4064 8.89876 33.3708 5.97401 30.739C0.37343 25.6809 -1.4312 17.7032 1.3276 10.9591C4.16938 4.11224 10.496 -0.0205566 16.7188 0.0205658Z" fill="#FDFDFD"/>
<path d="M70.2146 0.0205666C81.8514 5.38304e-06 89.2566 11.2059 84.5894 22.1444C83.1374 25.5576 81.0631 28.7446 79.0303 31.8904C74.6121 38.7167 71.4384 45.8515 72.2682 54.2404C72.4134 55.618 72.7867 57.448 70.6295 57.8592C68.9908 58.1676 68.1818 57.0368 67.5595 55.7414C61.71 43.7337 55.7568 31.7671 54.367 18.2172C53.3299 7.91607 60.1543 0.061689 70.2146 0.0205666Z" fill="#FDFDFD"/>
<path d="M51.4009 71.3679C45.0743 70.895 39.0796 74.0409 33.2302 77.6391C29.372 80.0036 25.7005 82.7177 21.3237 84.0747C14.6238 86.1514 8.67058 84.7738 4.00343 79.5102C-0.435549 74.5138 -1.09932 68.6127 1.57651 62.6911C4.45977 56.2966 9.95664 53.3357 16.9262 53.5414C25.0367 53.7675 32.6908 56.2349 40.1168 59.2779C45.2818 61.3957 50.3223 63.8014 55.3836 66.1659C56.9185 66.8856 59.2417 67.2351 58.6194 69.7436C57.9764 72.3137 55.7362 71.2446 54.0768 71.3679C53.4959 71.409 52.8737 71.3679 51.4009 71.3679Z" fill="#FDFDFD"/>
</g>
<defs>
<clipPath id="clip0_1_204">
<rect width="86" height="85" fill="white"/>
</clipPath>
</defs>
</svg>
