<svg width="428" height="428" viewBox="0 0 428 428" fill="none" xmlns="http://www.w3.org/2000/svg">
<g opacity="0.9">
<g opacity="0.1">
<path d="M219.586 426.388L218.583 373.568L217.879 320.697L216.87 215.051L216.46 109.401L216.454 56.575L216.747 3.7468L217.7 56.5667L218.404 109.388L219.412 215.034L219.823 320.684L219.829 373.56L219.586 426.388Z" fill="#DEDE3F"/>
<path d="M220.682 426.38L218.439 426.395L217.486 373.575L216.782 320.754L215.774 215.058L215.363 109.408L215.357 56.5819L215.601 3.75397L217.844 3.73891L218.797 56.5588L219.5 109.38L220.509 215.026L220.92 320.726L220.926 373.552L220.682 426.38ZM217.835 165.766L218.017 215.093L218.49 263.218L218.316 215.041L217.835 165.766Z" fill="#DEDE3F"/>
<path d="M229.472 421.324L225.994 371.07L222.815 320.764L216.806 220.199L211.394 119.581L208.913 69.2701L206.681 18.9577L210.159 69.2117L213.338 119.468L219.297 220.033L224.708 320.651L227.19 370.962L229.472 421.324Z" fill="#DEDE3F"/>
<path d="M228.326 421.382L224.848 371.128L221.669 320.822L215.71 220.257L210.298 119.638L207.817 69.3277L205.535 19.0156L207.777 18.9006L211.255 69.1546L214.434 119.461L220.394 220.025L225.805 320.644L228.286 370.955L230.519 421.267L228.326 421.382ZM215.506 175.128L217.902 220.142L220.544 264.604L218.151 220.14L215.506 175.128Z" fill="#DEDE3F"/>
<path d="M239.359 416.261L233.405 368.572L227.701 320.832L216.741 225.349L206.379 129.761L201.372 81.9663L196.614 34.1198L202.568 81.8583L208.272 129.549L219.232 225.032L229.594 320.619L234.601 368.414L239.359 416.261Z" fill="#DEDE3F"/>
<path d="M238.213 416.368L232.259 368.68L226.555 320.939L215.595 225.456L205.233 129.918L200.226 82.1234L195.468 34.2769L197.71 34.0119L203.663 81.7005L209.367 129.441L220.327 224.924L230.74 320.511L235.746 368.306L240.504 416.153L238.213 416.368ZM213.479 184.988L217.837 225.191L222.39 264.892L218.085 225.139L213.479 184.988Z" fill="#DEDE3F"/>
<path d="M249.244 411.196L240.816 366.073L232.636 320.898L216.675 230.446L201.312 139.94L193.83 94.6608L186.597 49.3297L195.025 94.4528L203.155 139.628L219.115 230.03L234.478 320.536L241.961 365.866L249.244 411.196Z" fill="#DEDE3F"/>
<path d="M248.099 411.403L239.67 366.28L231.491 321.106L215.53 230.703L200.167 140.197L192.685 94.9178L185.452 49.5868L187.642 49.2222L196.071 94.3453L204.25 139.52L220.211 229.922L235.574 320.428L243.056 365.708L250.339 410.988L248.099 411.403ZM211.697 194.345L217.821 230.288L224.091 265.78L218.069 230.236L211.697 194.345Z" fill="#DEDE3F"/>
<path d="M259.129 406.131L248.226 363.574L237.571 320.914L216.61 235.594L196.246 150.169L186.288 107.355L176.529 64.5397L187.433 107.097L198.088 149.707L218.999 235.028L239.363 320.502L249.37 363.266L259.129 406.131Z" fill="#DEDE3F"/>
<path d="M258.034 406.389L247.131 363.831L236.476 321.222L215.565 235.901L195.201 150.426L185.193 107.662L175.434 64.7973L177.624 64.2828L188.527 106.84L199.182 149.45L220.093 234.771L240.457 320.246L250.465 363.009L260.224 405.874L258.034 406.389ZM210.113 203.552L217.704 235.337L225.393 266.721L217.904 235.285L210.113 203.552Z" fill="#DEDE3F"/>
<path d="M268.965 401.068L255.586 361.075L242.456 320.982L216.594 240.741L191.23 160.348L178.746 120.05L166.462 79.7506L179.84 119.693L193.02 159.786L218.882 240.026L244.247 320.42L256.73 360.718L268.965 401.068Z" fill="#DEDE3F"/>
<path d="M267.92 401.425L254.542 361.432L241.411 321.339L215.5 241.099L190.135 160.655L177.651 120.357L165.416 80.0077L167.555 79.3436L180.934 119.336L194.064 159.43L219.976 239.669L245.341 320.113L257.825 360.411L270.059 400.761L267.92 401.425ZM208.725 212.157L217.638 240.385L226.649 268.262L217.837 240.333L208.725 212.157Z" fill="#DEDE3F"/>
<path d="M278.851 396.004L262.997 358.577L247.391 321.049L216.529 245.89L186.163 170.528L171.205 132.796L156.444 94.9118L172.298 132.338L187.903 169.817L218.766 244.976L249.132 320.388L264.091 358.12L278.851 396.004Z" fill="#DEDE3F"/>
<path d="M277.857 396.411L262.003 358.984L246.397 321.456L215.485 246.347L185.12 170.985L170.111 133.203L155.35 95.3189L157.438 94.4553L173.292 131.882L188.898 169.41L219.76 244.569L250.126 319.931L265.135 357.713L279.895 395.597L277.857 396.411ZM207.891 221.459L217.573 245.483L227.303 269.207L217.722 245.432L207.891 221.459Z" fill="#DEDE3F"/>
<path d="M288.738 390.94L270.459 356.079L252.328 321.116L216.516 251.088L181.149 180.757L163.665 145.491L146.379 110.123L164.708 144.934L182.788 179.897L218.652 249.974L253.968 320.305L271.502 355.572L288.738 390.94Z" fill="#DEDE3F"/>
<path d="M287.744 391.446L269.415 356.635L251.335 321.672L215.471 251.594L180.105 181.264L162.621 145.997L145.335 110.629L147.322 109.616L165.651 144.427L183.731 179.39L219.595 249.468L254.961 319.799L272.445 355.065L289.731 390.433L287.744 391.446ZM207.05 229.811L217.508 250.581L227.813 270.753L217.657 250.48L207.05 229.811Z" fill="#DEDE3F"/>
<path d="M298.624 385.876L277.869 353.58L257.264 321.233L216.45 256.236L176.133 190.937L156.123 158.186L136.312 125.334L157.116 157.579L177.671 189.977L218.485 254.973L258.852 320.223L278.862 352.974L298.624 385.876Z" fill="#DEDE3F"/>
<path d="M297.68 386.482L276.876 354.236L256.32 321.838L215.506 256.842L175.139 191.542L155.129 158.792L135.318 125.889L137.204 124.677L158.008 156.923L178.564 189.32L219.378 254.317L259.695 319.617L279.705 352.368L299.516 385.27L297.68 386.482ZM206.255 237.563L217.392 255.63L228.528 273.347L217.541 255.529L206.255 237.563Z" fill="#DEDE3F"/>
<path d="M308.509 380.811L285.279 351.13L262.248 321.298L216.434 261.383L171.115 201.114L148.58 170.879L126.293 140.493L149.522 170.173L172.553 200.005L218.368 259.921L263.686 320.189L286.222 350.424L308.509 380.811Z" fill="#DEDE3F"/>
<path d="M307.666 381.467L284.436 351.786L261.405 321.955L215.641 262.039L170.273 201.821L147.738 171.586L125.401 141.2L127.186 139.838L150.415 169.519L173.447 199.351L219.211 259.266L264.579 319.484L287.114 349.719L309.451 380.106L307.666 381.467Z" fill="#DEDE3F"/>
<path d="M318.395 375.748L292.69 348.632L267.184 321.316L216.469 266.531L166.1 211.345L141.089 183.575L116.227 155.705L141.931 182.82L167.437 210.086L218.203 264.921L268.522 320.108L293.532 347.827L318.395 375.748Z" fill="#DEDE3F"/>
<path d="M317.602 376.502L291.898 349.387L266.392 322.121L215.626 267.287L165.257 212.1L140.247 184.38L115.384 156.46L117.019 154.95L142.724 182.065L168.23 209.331L218.995 264.165L269.314 319.352L294.375 347.072L319.237 374.992L317.602 376.502Z" fill="#DEDE3F"/>
<path d="M328.281 370.684L300.151 346.134L272.17 321.383L216.454 271.679L161.084 221.524L133.548 196.32L106.16 170.916L134.34 195.415L162.321 220.166L218.037 269.92L273.357 320.075L300.893 345.279L328.281 370.684Z" fill="#DEDE3F"/>
<path d="M327.539 371.487L299.409 346.937L271.427 322.186L215.711 272.483L160.341 222.327L132.805 197.124L105.417 171.719L106.902 170.06L135.032 194.61L163.013 219.361L218.729 269.114L274.099 319.27L301.635 344.473L329.023 369.878L327.539 371.487Z" fill="#DEDE3F"/>
<path d="M338.167 365.619L307.562 343.635L277.105 321.449L216.438 276.777L156.118 231.702L126.056 209.015L96.1426 186.076L126.698 208.061L157.155 230.246L217.822 274.918L278.192 319.992L308.253 342.68L338.167 365.619Z" fill="#DEDE3F"/>
<path d="M337.525 366.523L306.92 344.539L276.463 322.353L215.796 277.681L155.425 232.607L125.364 209.919L95.4506 187.03L96.7843 185.222L127.39 207.207L157.846 229.392L218.513 274.064L278.884 319.188L308.945 341.876L338.859 364.765L337.525 366.523Z" fill="#DEDE3F"/>
<path d="M348.053 360.554L315.022 341.135L282.09 321.465L216.472 281.923L151.101 241.881L118.514 221.659L86.0752 201.286L119.106 220.705L152.038 240.325L217.655 279.916L283.027 319.959L315.614 340.131L348.053 360.554Z" fill="#DEDE3F"/>
<path d="M347.51 361.508L314.48 342.088L281.548 322.468L215.93 282.877L150.559 242.834L117.972 222.662L85.5333 202.289L86.7168 200.382L119.747 219.802L152.68 239.422L218.297 279.013L283.668 319.056L316.255 339.228L348.694 359.601L347.51 361.508Z" fill="#DEDE3F"/>
<path d="M357.938 355.491L322.432 338.587L287.074 321.532L216.456 287.022L146.134 252.011L111.022 234.354L76.0078 216.498L111.514 233.352L146.871 250.456L217.489 284.966L287.861 319.928L322.924 337.584L357.938 355.491Z" fill="#DEDE3F"/>
<path d="M357.446 356.493L321.94 339.64L286.533 322.535L215.915 288.025L145.542 253.014L110.43 235.357L75.4158 217.451L76.3993 215.445L111.905 232.299L147.313 249.403L217.931 283.913L288.303 318.925L323.415 336.581L358.429 354.438L357.446 356.493Z" fill="#DEDE3F"/>
<path d="M367.825 350.428L329.893 336.089L292.06 321.55L216.492 292.12L141.119 262.19L103.481 247.05L65.9912 231.659L103.923 245.998L141.756 260.537L217.324 289.966L292.697 319.896L330.285 335.037L367.825 350.428Z" fill="#DEDE3F"/>
<path d="M367.433 351.479L329.501 337.141L291.668 322.601L216.099 293.172L140.727 263.242L103.089 248.102L65.5493 232.711L66.3825 230.606L104.314 244.945L142.197 259.484L217.766 288.913L293.138 318.843L330.776 333.983L368.315 349.324L367.433 351.479Z" fill="#DEDE3F"/>
<path d="M377.71 345.363L337.304 333.589L296.995 321.566L216.476 297.217L136.102 272.319L95.9886 259.694L55.9238 246.869L96.3304 258.642L136.639 270.666L217.159 295.014L297.532 319.913L337.645 332.488L377.71 345.363Z" fill="#DEDE3F"/>
<path d="M377.418 346.414L337.061 334.64L296.752 322.617L216.133 298.269L135.76 273.42L95.5967 260.796L55.532 247.971L56.1656 245.818L96.5722 257.591L136.881 269.615L217.4 293.963L297.774 318.861L337.887 331.486L377.952 344.311L377.418 346.414Z" fill="#DEDE3F"/>
<path d="M387.597 340.299L344.764 331.04L301.981 321.582L216.46 302.265L131.086 282.448L88.4476 272.389L45.8574 262.08L88.6894 271.288L131.474 280.796L216.994 300.063L302.368 319.88L345.007 329.989L387.597 340.299Z" fill="#DEDE3F"/>
<path d="M387.355 341.399L344.522 332.141L301.738 322.683L216.268 303.366L130.894 283.548L88.255 273.439L45.6154 263.181L46.099 260.978L88.9314 270.236L131.715 279.695L217.186 299.012L302.56 318.829L345.199 328.938L387.789 339.247L387.355 341.399Z" fill="#DEDE3F"/>
<path d="M397.482 335.234L352.174 328.491L306.915 321.598L216.494 307.362L126.119 292.626L80.955 285.033L35.8398 277.29L81.0975 283.983L126.357 290.875L216.828 305.111L307.203 319.897L352.367 327.44L397.482 335.234Z" fill="#DEDE3F"/>
<path d="M397.29 336.335L351.982 329.642L306.723 322.699L216.252 308.464L125.877 293.727L80.7133 286.184L35.5978 278.391L35.9319 276.19L81.2395 282.882L126.548 289.775L217.02 304.01L307.394 318.747L352.558 326.29L397.674 334.083L397.29 336.335Z" fill="#DEDE3F"/>
<path d="M407.368 330.17L359.585 325.993L311.9 321.565L216.478 312.411L121.102 302.756L73.4134 297.728L25.7725 292.451L73.5057 296.628L121.24 301.006L216.663 310.21L312.038 319.865L359.727 324.892L407.368 330.17Z" fill="#DEDE3F"/>
<path d="M407.275 331.27L359.492 327.093L311.758 322.716L216.336 313.561L120.96 303.856L73.3208 298.828L25.63 293.551L25.8645 291.351L73.5977 295.528L121.332 299.905L216.804 309.06L312.13 318.765L359.819 323.792L407.509 329.019L407.275 331.27Z" fill="#DEDE3F"/>
<path d="M417.253 325.106L367.045 323.444L316.835 321.582L216.412 317.458L116.085 312.884L65.871 310.373L15.7051 307.661L65.9135 309.273L116.124 311.135L216.546 315.258L316.923 319.882L367.087 322.344L417.253 325.106Z" fill="#DEDE3F"/>
<path d="M417.211 326.205L367.002 324.594L316.792 322.682L216.37 318.608L115.993 313.985L65.8289 311.523L15.6626 308.761L15.7472 306.512L65.9559 308.174L116.166 310.035L216.589 314.159L316.965 318.732L367.13 321.244L417.295 323.956L417.211 326.205Z" fill="#DEDE3F"/>
<path d="M427.139 320.042L374.455 320.895L321.769 321.549L216.396 322.557L111.019 323.014L58.3292 323.018L5.68805 322.872L58.3222 321.969L111.008 321.315L216.381 320.358L321.758 319.9L374.448 319.846L427.139 320.042Z" fill="#DEDE3F"/>
<path d="M216.404 323.656L111.027 324.114L58.3369 324.168L5.64553 323.972L5.63043 321.723L58.3144 320.82L111 320.166L216.374 319.208L321.751 318.751L374.44 318.697L427.132 318.892L427.147 321.141L374.463 322.045L321.777 322.699L216.404 323.656Z" fill="#DEDE3F"/>
</g>
<path d="M216.031 424.063L215.078 371.243L214.374 318.422L213.366 212.776L212.955 107.076L212.949 54.2498L213.192 1.42194L214.195 54.2415L214.899 107.063L215.908 212.759L216.318 318.409L216.324 371.235L216.031 424.063Z" fill="#DEDE3F"/>
<path d="M217.177 424.055L214.934 424.07L213.981 371.25L213.278 318.428L212.269 212.783L211.859 107.133L211.853 54.3066L212.096 1.42877L214.339 1.41371L215.292 54.2336L215.995 107.055L217.004 212.701L217.414 318.351L217.421 371.227L217.177 424.055ZM214.285 164.041L214.462 212.768L214.939 261.493L214.761 212.766L214.285 164.041Z" fill="#DEDE3F"/>
<path d="M225.917 418.998L222.489 368.744L219.26 318.438L213.301 217.873L207.889 117.255L205.408 66.9439L203.176 16.6315L206.604 66.8859L209.833 117.142L215.792 217.756L221.203 318.325L223.685 368.686L225.917 418.998Z" fill="#DEDE3F"/>
<path d="M224.82 419.056L221.392 368.801L218.213 318.495L212.204 217.931L206.792 117.312L204.311 67.0015L202.029 16.6894L204.271 16.5744L207.749 66.8285L210.929 117.135L216.888 217.699L222.299 318.318L224.781 368.628L227.013 418.991L224.82 419.056ZM212 172.802L214.396 217.816L216.985 261.779L214.646 217.814L212 172.802Z" fill="#DEDE3F"/>
<path d="M235.803 413.935L229.899 366.246L224.195 318.506L213.235 223.022L202.823 127.435L197.866 79.64L193.108 31.8434L199.062 79.532L204.716 127.223L215.676 222.756L226.088 318.293L231.095 366.088L235.803 413.935Z" fill="#DEDE3F"/>
<path d="M234.707 414.093L228.754 366.404L223.05 318.664L212.09 223.181L201.727 127.593L196.72 79.7982L191.963 31.9517L194.204 31.6867L200.157 79.3753L205.861 127.116L216.821 222.599L227.234 318.186L232.24 365.981L236.998 413.828L234.707 414.093ZM209.973 182.663L214.331 222.916L218.885 262.667L214.58 222.914L209.973 182.663Z" fill="#DEDE3F"/>
<path d="M245.689 408.871L237.261 363.748L229.131 318.573L213.171 228.171L197.808 137.665L190.275 92.3356L183.042 47.0045L191.47 92.1276L199.65 137.302L215.611 227.755L230.974 318.261L238.456 363.54L245.689 408.871Z" fill="#DEDE3F"/>
<path d="M244.594 409.078L236.166 363.955L227.986 318.78L212.075 228.327L196.712 137.821L189.23 92.5418L181.996 47.2108L184.187 46.8462L192.616 91.9693L200.795 137.144L216.756 227.546L232.119 318.052L239.601 363.332L246.834 408.663L244.594 409.078ZM208.143 192.07L214.266 227.963L220.536 263.405L214.515 227.961L208.143 192.07Z" fill="#DEDE3F"/>
<path d="M255.575 403.807L244.671 361.25L234.017 318.64L213.105 233.319L192.741 147.845L182.734 105.081L173.024 62.2155L183.928 104.773L194.583 147.382L215.494 232.703L235.858 318.178L245.866 360.942L255.575 403.807Z" fill="#DEDE3F"/>
<path d="M254.48 404.064L243.576 361.506L232.921 318.897L212.01 233.576L191.646 148.101L181.638 105.337L171.879 62.4721L174.069 61.9576L184.973 104.515L195.627 147.124L216.539 232.446L236.903 317.92L246.91 360.684L256.669 403.549L254.48 404.064ZM206.609 201.226L214.2 233.011L221.785 263.946L214.398 232.91L206.609 201.226Z" fill="#DEDE3F"/>
<path d="M265.46 398.742L252.081 358.75L238.952 318.706L213.04 238.467L187.675 158.023L175.192 117.775L162.957 77.4254L176.336 117.418L189.466 157.461L215.378 237.701L240.742 318.095L253.226 358.393L265.46 398.742Z" fill="#DEDE3F"/>
<path d="M264.415 399.099L251.037 359.107L237.906 319.013L211.995 238.774L186.63 158.33L174.146 118.032L161.912 77.6825L164.051 77.0185L177.429 117.011L190.559 157.054L216.471 237.294L241.836 317.738L254.32 358.036L266.554 398.385L264.415 399.099ZM205.17 209.832L214.084 238.11L223.094 265.987L214.283 238.059L205.17 209.832Z" fill="#DEDE3F"/>
<path d="M275.346 393.678L259.492 356.251L243.887 318.773L213.024 243.614L182.659 168.202L167.65 130.469L152.89 92.5856L168.744 130.012L184.399 167.54L215.261 242.699L245.577 318.062L260.586 355.794L275.346 393.678Z" fill="#DEDE3F"/>
<path d="M274.302 394.085L258.448 356.658L242.843 319.13L211.98 244.021L181.615 168.659L166.606 130.877L151.846 92.9928L153.933 92.1291L169.787 129.556L185.393 167.084L216.255 242.243L246.621 317.605L261.63 355.387L276.39 393.271L274.302 394.085ZM204.386 219.133L214.068 243.207L223.798 266.881L214.268 243.156L204.386 219.133Z" fill="#DEDE3F"/>
<path d="M285.233 388.615L266.904 353.754L248.824 318.841L212.961 248.763L177.644 178.432L160.11 143.166L142.874 107.797L161.203 142.659L179.283 177.572L215.097 247.649L250.463 317.98L267.948 353.247L285.233 388.615Z" fill="#DEDE3F"/>
<path d="M284.239 389.12L265.91 354.309L247.83 319.346L211.967 249.268L176.6 178.938L159.116 143.671L141.83 108.303L143.817 107.29L162.146 142.101L180.227 177.064L216.09 247.142L251.456 317.472L268.941 352.739L286.226 388.107L284.239 389.12ZM203.546 227.535L213.954 248.255L224.41 268.676L214.103 248.204L203.546 227.535Z" fill="#DEDE3F"/>
<path d="M295.118 383.551L274.314 351.305L253.758 318.908L212.944 253.911L172.577 188.612L152.617 155.861L132.806 123.008L153.61 155.254L174.166 187.652L214.979 252.648L255.297 317.898L275.306 350.649L295.118 383.551Z" fill="#DEDE3F"/>
<path d="M294.175 384.156L273.371 351.911L252.815 319.513L212.001 254.517L171.634 189.217L151.624 156.466L131.813 123.564L133.699 122.352L154.503 154.598L175.059 186.995L215.873 251.992L256.19 317.292L276.2 350.042L296.011 382.945L294.175 384.156ZM202.8 235.337L213.887 253.305L224.821 270.673L214.036 253.204L202.8 235.337Z" fill="#DEDE3F"/>
<path d="M305.004 378.486L281.775 348.805L258.694 318.974L212.929 259.058L167.611 198.84L145.076 168.605L122.739 138.218L146.019 167.899L169.05 197.731L214.814 257.596L260.182 317.864L282.667 348.1L305.004 378.486Z" fill="#DEDE3F"/>
<path d="M304.112 379.192L280.883 349.511L257.852 319.679L212.087 259.764L166.719 199.545L144.184 169.31L121.847 138.924L123.632 137.563L146.862 167.243L169.893 197.075L215.657 256.991L261.025 317.209L283.561 347.444L305.897 377.83L304.112 379.192Z" fill="#DEDE3F"/>
<path d="M314.89 373.421L289.185 346.306L263.679 319.04L212.914 264.206L162.595 209.018L137.534 181.299L112.722 153.379L138.426 180.494L163.933 207.76L214.648 262.595L265.017 317.781L290.028 345.501L314.89 373.421Z" fill="#DEDE3F"/>
<path d="M314.097 374.177L288.393 347.062L262.887 319.796L212.121 264.961L161.753 209.775L136.742 182.055L111.879 154.135L113.514 152.624L139.219 179.739L164.725 207.006L215.49 261.84L265.809 317.027L290.87 344.746L315.732 372.667L314.097 374.177Z" fill="#DEDE3F"/>
<path d="M324.776 368.357L296.646 343.807L268.614 319.057L212.948 269.353L157.578 219.198L130.042 193.994L102.654 168.589L130.784 193.139L158.766 217.84L214.482 267.594L269.851 317.749L297.388 342.953L324.776 368.357Z" fill="#DEDE3F"/>
<path d="M324.034 369.213L295.904 344.663L267.922 319.912L212.156 270.159L156.837 220.053L129.3 194.849L101.912 169.445L103.397 167.785L131.527 192.335L159.508 217.086L215.224 266.84L270.594 316.895L298.13 342.099L325.518 367.503L324.034 369.213Z" fill="#DEDE3F"/>
<path d="M334.662 363.294L304.057 341.31L273.6 319.124L212.933 274.452L152.563 229.378L122.501 206.69L92.5879 183.801L123.193 205.736L153.65 227.921L214.316 272.594L274.687 317.668L304.749 340.406L334.662 363.294Z" fill="#DEDE3F"/>
<path d="M334.02 364.197L303.415 342.212L272.958 320.027L212.291 275.355L151.921 230.281L121.859 207.593L91.9457 184.704L93.2794 182.896L123.885 204.88L154.342 227.066L215.008 271.738L275.379 316.862L305.441 339.55L335.354 362.439L334.02 364.197Z" fill="#DEDE3F"/>
<path d="M344.548 358.23L311.517 338.81L278.585 319.191L212.968 279.599L147.596 239.556L115.009 219.384L82.5703 198.962L115.601 218.381L148.533 238.001L214.15 277.592L279.522 317.635L312.059 337.807L344.548 358.23Z" fill="#DEDE3F"/>
<path d="M343.956 359.183L310.925 339.764L277.993 320.144L212.376 280.553L147.004 240.51L114.417 220.338L81.9786 199.965L83.1621 198.058L116.193 217.477L149.125 237.097L214.742 276.689L280.114 316.731L312.7 336.903L345.139 357.276L343.956 359.183Z" fill="#DEDE3F"/>
<path d="M354.434 353.166L318.928 336.312L283.571 319.207L212.953 284.697L142.581 249.736L107.468 232.03L72.5039 214.172L108.01 231.026L143.367 248.131L213.986 282.641L284.308 317.603L319.42 335.259L354.434 353.166Z" fill="#DEDE3F"/>
<path d="M353.942 354.168L318.436 337.314L283.029 320.21L212.411 285.7L142.038 250.688L106.926 233.032L71.9119 215.126L72.8954 213.12L108.401 229.974L143.809 247.078L214.427 281.588L284.799 316.6L319.911 334.256L354.926 352.163L353.942 354.168Z" fill="#DEDE3F"/>
<path d="M364.32 348.101L326.388 333.762L288.505 319.223L212.937 289.794L137.614 259.864L99.9759 244.723L62.4365 229.382L100.368 243.671L138.251 258.21L213.819 287.639L289.142 317.57L326.78 332.71L364.32 348.101Z" fill="#DEDE3F"/>
<path d="M363.928 349.153L325.996 334.814L288.113 320.275L212.544 290.846L137.172 260.916L99.5339 245.775L61.9946 230.435L62.8279 228.33L100.759 242.669L138.592 257.208L214.161 286.637L289.534 316.567L327.172 331.707L364.711 347.048L363.928 349.153Z" fill="#DEDE3F"/>
<path d="M374.205 343.036L333.799 331.263L293.49 319.239L212.971 294.891L132.597 269.992L92.484 257.418L52.4189 244.543L92.7757 256.316L133.084 268.34L213.604 292.688L293.978 317.587L334.141 330.211L374.205 343.036Z" fill="#DEDE3F"/>
<path d="M373.863 344.089L333.456 332.316L293.148 320.292L212.628 295.944L132.255 271.095L92.0919 258.471L52.0271 245.646L52.6607 243.492L93.0673 255.266L133.376 267.289L213.895 291.637L294.269 316.536L334.432 329.161L374.497 341.986L373.863 344.089Z" fill="#DEDE3F"/>
<path d="M384.091 337.973L341.259 328.715L298.425 319.257L212.954 299.94L127.58 280.172L84.9417 270.063L42.3516 259.754L85.1839 269.012L127.968 278.47L213.438 297.737L298.812 317.555L341.501 327.664L384.091 337.973Z" fill="#DEDE3F"/>
<path d="M383.849 339.074L341.016 329.816L298.233 320.358L212.762 301.041L127.388 281.223L84.7491 271.114L42.1095 260.855L42.5932 258.653L85.4255 267.911L128.209 277.369L213.68 296.686L299.054 316.504L341.693 326.613L384.283 336.922L383.849 339.074Z" fill="#DEDE3F"/>
<path d="M393.977 332.909L348.67 326.216L303.41 319.273L212.939 305.038L122.564 290.302L77.4007 282.758L32.2852 274.965L77.5927 281.658L122.852 288.6L213.323 302.836L303.698 317.572L348.812 325.116L393.977 332.909Z" fill="#DEDE3F"/>
<path d="M393.785 334.009L348.478 327.317L303.218 320.374L212.797 306.138L122.372 291.402L77.2084 283.859L32.0929 276.065L32.4769 273.864L77.7346 280.557L122.994 287.449L213.465 301.685L303.84 316.471L349.004 324.014L394.169 331.807L393.785 334.009Z" fill="#DEDE3F"/>
<path d="M403.863 327.844L356.08 323.667L308.345 319.24L212.923 310.085L117.548 300.43L69.9085 295.403L22.2676 290.125L70.0008 294.303L117.736 298.73L213.158 307.885L308.533 317.539L356.172 322.567L403.863 327.844Z" fill="#DEDE3F"/>
<path d="M403.501 328.929L355.768 324.752L308.033 320.374L212.611 311.219L117.235 301.515L69.5463 296.487L21.9057 291.26L22.1399 289.009L69.8731 293.187L117.608 297.564L213.03 306.719L308.405 316.424L356.094 321.451L403.735 326.678L403.501 328.929Z" fill="#DEDE3F"/>
<path d="M413.699 322.781L363.49 321.119L313.28 319.257L212.907 315.184L112.531 310.56L62.3662 308.048L12.2002 305.337L62.4089 306.998L112.619 308.86L212.992 312.934L313.368 317.558L363.533 320.069L413.699 322.781Z" fill="#DEDE3F"/>
<path d="M413.706 323.88L363.497 322.268L313.287 320.407L212.864 316.283L112.488 311.66L62.3237 309.198L12.1079 306.486L12.2423 304.236L62.4507 305.848L112.661 307.71L213.034 311.834L313.41 316.457L363.624 318.919L413.79 321.631L413.706 323.88Z" fill="#DEDE3F"/>
<path d="M423.585 317.716L370.951 318.62L318.265 319.273L212.891 320.231L107.514 320.689L54.8247 320.743L2.13336 320.547L54.8173 319.643L107.503 318.99L212.877 318.032L318.254 317.574L370.943 317.52L423.585 317.716Z" fill="#DEDE3F"/>
<path d="M212.899 321.33L107.522 321.788L54.832 321.842L2.14065 321.646L2.12555 319.397L54.8098 318.544L107.495 317.84L212.869 316.883L318.246 316.425L370.936 316.421L423.627 316.567L423.642 318.816L370.958 319.719L318.272 320.373L212.899 321.33Z" fill="#DEDE3F"/>
</g>
</svg>
