<svg width="425" height="425" viewBox="0 0 425 425" fill="none" xmlns="http://www.w3.org/2000/svg">
<g opacity="0.9">
<path d="M367.651 269.353C336.328 269.353 310.871 244.071 310.871 213.006C310.871 181.94 336.328 156.658 367.651 156.658C398.974 156.658 424.431 181.94 424.431 213.006C424.431 244.071 398.974 269.353 367.651 269.353ZM367.651 158.398C337.306 158.398 312.623 182.91 312.623 213.006C312.623 243.141 337.306 267.613 367.651 267.613C397.996 267.613 422.679 243.101 422.679 213.006C422.72 182.87 398.037 158.398 367.651 158.398Z" fill="#EC681C"  />
<path d="M358.65 272.75C356.695 272.75 354.699 272.669 352.703 272.467C336.696 270.889 322.277 263.244 312.053 250.907C301.87 238.57 297.105 223.037 298.652 207.14C301.911 174.335 331.401 150.307 364.475 153.543C380.482 155.121 394.901 162.766 405.125 175.103C415.308 187.44 420.074 202.973 418.526 218.87C415.471 249.653 389.199 272.75 358.65 272.75ZM352.866 270.768C384.922 273.883 413.638 250.543 416.774 218.709C418.322 203.297 413.679 188.209 403.781 176.195C393.883 164.222 379.871 156.779 364.312 155.282C332.256 152.127 303.54 175.508 300.404 207.342C298.856 222.754 303.5 237.842 313.397 249.855C323.336 261.788 337.348 269.231 352.866 270.768Z" fill="#EC681C"  />
<path d="M349.568 276.673C345.658 276.673 341.707 276.309 337.756 275.581C320.934 272.466 306.311 263.001 296.617 249.005C286.923 234.968 283.338 218.06 286.475 201.314C292.951 166.81 326.555 143.996 361.299 150.427C378.121 153.542 392.744 163.007 402.438 177.003C412.132 191.039 415.716 207.948 412.58 224.654C406.837 255.275 379.832 276.673 349.568 276.673ZM349.527 151.074C320.078 151.074 293.806 171.906 288.185 201.637C285.131 217.898 288.634 234.362 298.043 248.034C307.452 261.666 321.667 270.888 338.082 273.922C371.93 280.192 404.556 257.985 410.91 224.411C413.965 208.15 410.462 191.687 401.053 178.014C391.644 164.383 377.429 155.16 361.014 152.126C357.144 151.398 353.315 151.074 349.527 151.074Z" fill="#EC681C"  />
<path d="M340.484 281.002C334.66 281.002 328.754 280.274 322.848 278.696C305.17 274.004 290.385 262.799 281.22 247.064C272.055 231.369 269.611 213.045 274.336 195.49C284.071 159.287 321.666 137.646 358.162 147.314C375.84 152.006 390.625 163.21 399.79 178.946C408.954 194.64 411.398 212.964 406.673 230.52C398.527 260.898 370.748 281.002 340.484 281.002ZM323.296 277.038C358.895 286.463 395.513 265.388 405.003 230.075C409.606 212.964 407.203 195.126 398.283 179.795C389.362 164.464 374.943 153.543 357.714 148.972C322.114 139.587 285.456 160.622 275.965 195.935C271.363 213.045 273.766 230.884 282.686 246.215C291.647 261.505 306.066 272.467 323.296 277.038Z" fill="#EC681C"  />
<path d="M331.36 285.654C323.58 285.654 315.678 284.4 307.898 281.811C289.365 275.581 274.417 262.556 265.782 245.163C257.147 227.769 255.843 208.07 262.116 189.705C275.068 151.763 316.737 131.416 354.943 144.239C373.476 150.468 388.425 163.493 397.06 180.887C405.695 198.281 406.998 217.98 400.726 236.345C390.42 266.561 361.868 285.654 331.36 285.654ZM308.468 280.152C345.779 292.732 386.429 272.79 399.096 235.778C405.247 217.859 403.943 198.604 395.512 181.615C387.08 164.626 372.458 151.925 354.373 145.817C317.063 133.237 276.413 153.138 263.745 190.191C257.595 208.11 258.898 227.365 267.329 244.354C275.802 261.383 290.384 274.085 308.468 280.152Z" fill="#EC681C"  />
<path d="M322.277 290.59C312.501 290.59 302.603 288.77 292.991 284.887C273.643 277.12 258.491 262.315 250.385 243.223C242.239 224.13 242.076 203.055 249.937 183.842C266.148 144.2 311.809 125.027 351.766 141.086C371.114 148.852 386.266 163.657 394.372 182.749C402.518 201.842 402.681 222.917 394.82 242.13C382.519 272.266 353.151 290.59 322.277 290.59ZM322.48 137.162C292.257 137.162 263.582 155.081 251.526 184.529C243.868 203.298 243.99 223.928 251.974 242.575C259.957 261.223 274.743 275.704 293.642 283.309C332.704 299.004 377.387 280.275 393.19 241.524C400.848 222.755 400.726 202.125 392.742 183.477C384.759 164.83 369.973 150.349 351.074 142.744C341.706 138.942 332.012 137.162 322.48 137.162Z" fill="#EC681C"  />
<path d="M313.195 295.726C301.423 295.726 289.448 293.259 278.084 288C257.881 278.656 242.566 262.072 234.949 241.321C227.332 220.57 228.31 198.079 237.719 178.056C257.148 136.716 306.841 118.756 348.509 138.01C368.712 147.354 384.027 163.939 391.644 184.69C399.261 205.441 398.283 227.932 388.874 247.955C374.74 278.05 344.599 295.726 313.195 295.726ZM278.817 286.463C319.63 305.313 368.305 287.758 387.326 247.267C396.532 227.648 397.509 205.643 390.055 185.297C382.601 164.95 367.612 148.73 347.817 139.588C307.003 120.698 258.329 138.294 239.307 178.784C230.102 198.403 229.125 220.408 236.578 240.754C244.032 261.101 259.062 277.321 278.817 286.463Z" fill="#EC681C"  />
<path d="M304.11 301.105C290.302 301.105 276.25 297.909 263.175 291.113C242.157 280.232 226.679 261.868 219.551 239.418C212.423 216.968 214.582 193.102 225.539 172.27C248.186 129.191 301.911 112.444 345.331 134.935C366.348 145.816 381.826 164.18 388.954 186.63C396.082 209.08 393.923 232.946 382.967 253.778C367.122 283.832 336.125 301.105 304.11 301.105ZM304.395 126.642C272.991 126.642 242.605 143.55 227.087 173.039C216.333 193.507 214.256 216.887 221.221 238.892C228.186 260.897 243.379 278.897 263.99 289.576C306.554 311.622 359.22 295.199 381.419 252.969C392.172 232.501 394.249 209.12 387.284 187.115C380.319 165.11 365.126 147.11 344.516 136.431C331.686 129.797 317.918 126.642 304.395 126.642Z" fill="#EC681C"  />
<path d="M295.027 306.607C279.142 306.607 263.012 302.603 248.267 294.23C226.394 281.811 210.753 261.667 204.155 237.518C197.556 213.369 200.815 188.169 213.36 166.447C239.225 121.668 296.942 106.136 342.072 131.781C363.945 144.199 379.586 164.344 386.185 188.492C392.783 212.641 389.525 237.842 376.979 259.564C359.628 289.699 327.735 306.607 295.027 306.607ZM295.353 121.143C263.216 121.143 231.934 137.727 214.867 167.337C202.566 188.614 199.349 213.41 205.825 237.073C212.301 260.777 227.698 280.517 249.163 292.733C293.439 317.934 350.137 302.684 375.554 258.714C387.855 237.437 391.072 212.641 384.596 188.978C378.12 165.274 362.723 145.534 341.258 133.318C326.757 125.066 310.953 121.143 295.353 121.143Z" fill="#EC681C"  />
<path d="M285.944 312.23C267.941 312.23 249.734 307.417 233.36 297.345C210.672 283.349 194.827 261.465 188.718 235.658C182.649 209.851 187.048 183.234 201.141 160.703C230.223 114.226 292.013 99.8661 338.855 128.707C361.542 142.703 377.387 164.587 383.496 190.394C389.565 216.201 385.166 242.818 371.073 265.348C352.174 295.565 319.426 312.23 285.944 312.23ZM234.296 295.848C280.323 324.204 341.054 310.127 369.607 264.418C383.456 242.292 387.773 216.12 381.786 190.758C375.798 165.396 360.239 143.876 337.918 130.123C291.891 101.767 231.16 115.844 202.607 161.553C188.758 183.679 184.441 209.851 190.428 235.213C196.416 260.575 211.975 282.135 234.296 295.848Z" fill="#EC681C"  />
<path d="M276.902 317.973C256.78 317.973 236.455 312.31 218.492 300.458C194.95 284.925 178.942 261.221 173.362 233.755C167.782 206.249 173.321 178.257 188.962 154.918C221.262 106.701 287.044 93.5544 335.637 125.632C359.18 141.164 375.187 164.828 380.767 192.334C386.348 219.84 380.808 247.832 365.167 271.172C344.801 301.51 311.157 317.973 276.902 317.973ZM219.429 299.002C267.207 330.513 331.93 317.609 363.701 270.161C379.097 247.185 384.555 219.638 379.057 192.617C373.558 165.556 357.795 142.257 334.659 127.007C286.881 95.4961 222.158 108.4 190.388 155.808C174.991 178.783 169.533 206.33 175.032 233.351C180.531 260.412 196.294 283.712 219.429 299.002Z" fill="#EC681C"  />
<path d="M267.861 323.799C245.58 323.799 223.137 317.246 203.627 303.534C179.269 286.464 163.058 260.98 157.967 231.815C152.916 202.65 159.596 173.243 176.785 149.094C212.303 99.1784 282.117 87.2456 332.42 122.478C356.778 139.548 372.989 165.032 378.08 194.196C383.131 223.361 376.451 252.768 359.262 276.917C337.512 307.457 302.931 323.799 267.861 323.799ZM204.604 302.158C254.134 336.865 322.848 325.094 357.837 275.946C374.781 252.121 381.339 223.199 376.37 194.479C371.4 165.76 355.434 140.68 331.443 123.894C281.913 89.1872 213.158 100.958 178.21 150.105C161.266 173.89 154.667 202.812 159.637 231.532C164.647 260.252 180.613 285.331 204.604 302.158Z" fill="#EC681C"  />
<path d="M258.817 329.704C234.378 329.704 209.776 322.22 188.717 306.647C163.504 288.04 147.13 260.776 142.568 229.953C138.006 199.089 145.827 168.347 164.604 143.308C203.34 91.6533 277.187 80.9339 329.201 119.362C354.414 137.969 370.788 165.232 375.35 196.056C379.912 226.919 372.091 257.661 353.314 282.7C330.26 313.443 294.742 329.704 258.817 329.704ZM259.102 98.0444C223.665 98.0444 188.717 114.063 165.989 144.36C147.497 168.994 139.799 199.332 144.279 229.71C148.76 260.089 164.93 286.948 189.776 305.272C241.058 343.133 313.804 332.576 351.97 281.689C370.462 257.055 378.16 226.717 373.68 196.339C369.199 165.961 353.029 139.102 328.183 120.778C307.409 105.406 283.133 98.0444 259.102 98.0444Z" fill="#EC681C"  />
<path d="M249.734 335.652C223.137 335.652 196.376 327.197 173.81 309.763C147.783 289.619 131.205 260.576 127.132 228.054C123.1 195.532 132.02 163.374 152.345 137.526C194.299 84.1718 272.137 74.6255 325.902 116.249C351.93 136.393 368.508 165.437 372.581 197.959C376.613 230.481 367.693 262.639 347.368 288.486C323.051 319.471 286.556 335.652 249.734 335.652ZM250.019 92.0596C213.728 92.0596 177.761 108.037 153.73 138.577C133.69 164.061 124.851 195.774 128.843 227.851C132.834 259.929 149.168 288.527 174.87 308.429C227.861 349.445 304.641 340.061 345.983 287.435C366.023 261.951 374.862 230.238 370.87 198.161C366.879 166.084 350.545 137.485 324.843 117.584C302.645 100.392 276.251 92.0596 250.019 92.0596Z" fill="#EC681C"  />
<path d="M240.691 341.718C211.894 341.718 182.934 332.293 158.943 312.877C132.06 291.155 115.319 260.373 111.775 226.152C108.232 191.931 118.333 158.397 140.206 131.741C185.378 76.6877 267.248 68.3144 322.725 113.133C349.608 134.855 366.348 165.638 369.892 199.859C373.436 234.08 363.334 267.613 341.461 294.27C315.841 325.498 278.409 341.718 240.691 341.718ZM160.042 311.542C214.786 355.755 295.597 347.503 340.117 293.178C361.705 266.845 371.643 233.756 368.14 200.021C364.637 166.285 348.1 135.867 321.584 114.468C266.841 70.2561 186.07 78.5079 141.51 132.833C119.922 159.166 109.983 192.254 113.486 225.99C116.989 259.725 133.526 290.144 160.042 311.542Z" fill="#EC681C"  />
<path d="M231.648 347.785C200.652 347.785 169.533 337.349 144.035 315.991C116.296 292.732 99.3928 260.17 96.3379 224.29C93.283 188.411 104.525 153.502 127.946 125.996C176.335 69.2034 262.238 62.0437 319.466 110.018C347.204 133.277 364.108 165.839 367.163 201.719C370.217 237.598 358.976 272.507 335.555 300.013C308.713 331.564 270.303 347.785 231.648 347.785ZM231.852 79.9632C193.686 79.9632 155.806 95.9815 129.29 127.088C106.154 154.23 95.0752 188.734 98.0893 224.128C101.103 259.563 117.803 291.721 145.175 314.656C201.67 362.023 286.473 354.985 334.211 298.921C357.346 271.779 368.425 237.315 365.411 201.881C362.438 166.446 345.697 134.288 318.325 111.353C293.194 90.2376 262.442 79.9632 231.852 79.9632Z" fill="#EC681C"  />
<path d="M222.607 353.894C189.411 353.894 156.051 342.446 129.168 319.106C100.616 294.31 83.5083 259.968 80.9422 222.39C78.4169 184.811 90.7586 148.527 115.768 120.172C167.334 61.6803 257.27 55.7341 316.208 106.904C344.761 131.7 361.868 166.042 364.434 203.621C367.001 241.199 354.618 277.483 329.609 305.839C301.586 337.633 262.198 353.894 222.607 353.894ZM222.77 73.8154C183.667 73.8154 144.769 89.8742 117.071 121.304C92.3878 149.296 80.1683 185.135 82.6937 222.268C85.1783 259.361 102.123 293.299 130.309 317.771C188.555 368.334 277.35 362.429 328.306 304.625C352.989 276.633 365.208 240.794 362.683 203.661C360.198 166.568 343.254 132.63 315.068 108.158C288.511 85.1415 255.6 73.8154 222.77 73.8154Z" fill="#EC681C"  />
<path d="M213.564 360.043C178.128 360.043 142.61 347.544 114.301 322.181C84.8932 295.848 67.5822 259.726 65.5864 220.489C63.5498 181.252 77.0727 143.553 103.589 114.388C158.373 54.1979 252.3 49.4247 312.99 103.79C342.399 130.123 359.71 166.245 361.705 205.482C363.742 244.719 350.219 282.419 323.703 311.583C294.457 343.701 254.092 360.043 213.564 360.043ZM213.727 67.6678C173.688 67.6678 133.771 83.8075 104.892 115.561C78.6613 144.402 65.342 181.616 67.3379 220.408C69.3337 259.2 86.441 294.877 115.483 320.927C175.44 374.646 268.308 369.953 322.44 310.41C348.671 281.569 361.991 244.355 359.995 205.563C357.999 166.771 340.892 131.094 311.85 105.044C283.867 80.0052 248.716 67.6678 213.727 67.6678Z" fill="#EC681C"  />
<path d="M204.522 366.272C166.845 366.272 129.128 352.721 99.4344 325.336C69.1708 297.466 51.6969 259.564 50.1899 218.628C48.6828 177.692 63.3054 138.657 91.4103 108.643C149.412 46.7138 247.331 43.1138 309.773 100.675C339.996 128.545 357.51 166.447 359.017 207.383C360.524 248.318 345.902 287.353 317.797 317.367C287.37 349.808 245.987 366.272 204.522 366.272ZM100.616 324.082C162.324 380.996 259.184 377.436 316.534 316.194C344.313 286.544 358.773 247.914 357.266 207.423C355.759 166.973 338.488 129.475 308.591 101.929C246.842 45.0554 149.982 48.5745 92.673 109.816C64.894 139.466 50.4343 178.097 51.9413 218.587C53.4077 259.038 70.7186 296.495 100.616 324.082Z" fill="#EC681C"  />
<path d="M195.48 372.46C155.563 372.46 115.605 357.858 84.5268 328.41C53.4486 299.043 35.8118 259.361 34.7935 216.767C33.7752 174.173 49.5383 133.722 79.191 102.899C140.37 39.2302 242.362 36.8436 306.514 97.5596C337.593 126.967 355.27 166.649 356.248 209.243C357.266 251.837 341.503 292.288 311.85 323.111C280.324 355.956 237.922 372.46 195.48 372.46ZM195.561 55.2485C153.567 55.2485 111.654 71.5905 80.4537 104.072C51.1269 134.572 35.5267 174.577 36.545 216.726C37.5632 258.876 55.0371 298.112 85.7488 327.196C149.209 387.265 250.06 384.919 310.628 321.938C339.955 291.438 355.555 251.433 354.537 209.283C353.519 167.134 336.045 127.897 305.333 98.8136C274.54 69.6893 235.03 55.2485 195.561 55.2485Z" fill="#EC681C"  />
<path d="M186.437 378.73C144.279 378.73 102.122 363.035 69.6589 331.565C37.766 300.62 19.8848 259.159 19.3961 214.866C18.9073 170.613 35.8109 128.787 66.9706 97.1146C131.408 31.7468 237.392 30.5333 303.255 94.4449C335.148 125.389 353.029 166.851 353.518 211.144C354.007 255.437 337.103 297.263 305.902 328.936C273.236 362.064 229.856 378.73 186.437 378.73ZM70.8809 330.351C136.051 393.575 240.976 392.402 304.681 327.722C335.555 296.373 352.296 254.992 351.766 211.144C351.277 167.336 333.6 126.32 302.033 95.6584C236.862 32.4345 131.978 33.6076 68.2333 98.2877C37.3587 129.637 20.618 171.017 21.1068 214.866C21.6363 258.673 39.2731 299.69 70.8809 330.351Z" fill="#EC681C"  />
<path d="M177.395 385C132.997 385 88.5996 368.213 54.7924 334.68C22.0441 302.198 4 258.957 4 213.005C4 167.053 22.0441 123.812 54.7924 91.3303C122.407 24.2232 232.423 24.2232 300.038 91.3303C332.786 123.852 350.83 167.053 350.83 213.005C350.83 258.957 332.786 302.198 300.038 334.68C266.19 368.213 221.792 385 177.395 385ZM177.395 42.709C133.445 42.709 89.455 59.3341 56.0143 92.5439C23.5919 124.702 5.71073 167.498 5.71073 213.005C5.71073 258.512 23.5919 301.268 56.0143 333.466C122.936 399.886 231.853 399.886 298.775 333.466C331.197 301.308 349.038 258.512 349.038 213.005C349.038 167.498 331.197 124.702 298.775 92.5439C265.334 59.3341 221.344 42.709 177.395 42.709Z" fill="#EC681C"  />
</g>
</svg>
