<svg width="141" height="32" viewBox="0 0 141 32" fill="none" xmlns="http://www.w3.org/2000/svg">
<g clip-path="url(#clip0_1_40)">
<path d="M29.1119 2.69459C29.1119 3.32286 28.8632 3.75567 28.5592 4.3281L14.8945 26.9738C23.5852 26.9738 25.9479 19.3787 27.067 19.3787C27.8131 19.3787 29.181 20.0628 29.181 20.5654C29.181 21.0681 27.8131 28.5934 27.5644 29.5428C27.1914 30.9808 26.6387 31.3578 25.3952 31.3578C16.8288 31.1065 9.75463 31.1065 1.17442 31.3578C0.621754 31.3578 0 29.9756 0 29.2216C0 28.5934 0.303969 28.0908 0.621754 27.5881L14.2865 4.99826C5.59579 4.99826 4.15884 12.5934 3.0535 12.5934C2.3074 12.5934 0.939539 11.9093 0.939539 11.4066C0.939539 10.904 2.3074 3.37871 2.5561 2.42932C2.92915 0.991275 3.48182 0.614311 4.72533 0.614311C13.2917 0.86562 19.4402 0.86562 28.0066 0.614311C28.5592 0.628273 29.1119 1.94066 29.1119 2.69459Z" fill="white"/>
<path d="M63.8196 16C63.8196 25.2845 56.8698 32 47.2395 32C37.6092 32 30.6594 25.2845 30.6594 16C30.6594 6.71553 37.623 0 47.2395 0C56.8559 0 63.8196 6.71553 63.8196 16ZM42.8319 16C42.8319 24.2792 44.3241 28.2304 47.2395 28.2304C50.1548 28.2304 51.647 24.2792 51.647 16C51.647 7.72077 50.1548 3.76963 47.2395 3.76963C44.3241 3.76963 42.8319 7.72077 42.8319 16Z" fill="white"/>
<path d="M76.6423 0.628272C77.3884 0.628272 78.6872 1.31239 78.6872 1.81501V5.20768C81.8512 2.38743 85.8996 0 88.3175 0C94.1482 0 98.1827 4.1466 98.1827 10.4154V25.8429C98.1827 28.4817 100.974 28.2862 100.974 29.2914C100.974 30.0454 100.297 31.3578 99.7992 31.3578C94.8943 31.1065 89.561 31.1065 84.6561 31.3578C84.1586 31.3578 83.4816 30.0454 83.4816 29.2914C83.4816 28.2862 86.2726 28.4817 86.2726 25.7731V11.4764C86.2726 8.27923 85.3469 6.77138 83.3573 6.77138C81.0637 6.77138 78.701 11.2251 78.701 15.4974V25.8429C78.701 28.4817 81.492 28.2862 81.492 29.2914C81.492 30.0454 80.815 31.3578 80.3176 31.3578C75.4126 31.1065 70.0794 31.1065 65.1744 31.3578C64.677 31.3578 64 30.0454 64 29.2914C64 28.2862 66.791 28.4817 66.791 25.7731V9.10297C66.791 6.46422 64 6.65969 64 5.65445C64 4.90052 64.677 3.64398 65.1744 3.58813C71.4887 2.9459 75.6475 0.628272 76.6423 0.628272Z" fill="white"/>
<path d="M139.729 27.6021C136.869 27.6021 136.123 26.4154 136.192 21.459V1.81501C136.192 1.31239 134.824 0.628272 134.078 0.628272C133.332 0.628272 130.665 2.01047 126.506 2.9459C124.834 1.31239 121.601 0 118.064 0C109.373 0 103.294 6.64572 103.294 16C103.294 25.8429 108.323 32 116.461 32C118.948 32 122.168 29.4869 124.724 26.7923C125.65 30.4363 128.081 32 132.295 32C136.081 32 139.867 30.7435 140.931 29.6824C141.276 29.3054 140.351 27.6021 139.729 27.6021ZM112.883 9.3822C114.168 8.08377 116.268 8.08377 117.567 9.3822C119.432 11.267 121.615 17.438 121.698 17.6894C121.753 17.8569 121.712 18.0524 121.587 18.178C121.449 18.3176 121.27 18.3456 121.104 18.2897C120.841 18.192 114.734 16 112.883 14.1152C111.584 12.7888 111.598 10.6806 112.883 9.3822ZM122.195 21.808C120.192 21.5428 118.921 22.3665 117.677 23.1623C116.765 23.7487 115.895 24.3072 114.845 24.3072C113.228 24.3072 111.916 22.9808 111.916 21.3473C111.916 19.7138 113.228 18.3874 114.845 18.3874C115.909 18.3874 117.138 18.6527 118.617 19.1972C119.957 19.6859 121.311 20.356 122.458 20.9284C122.665 21.0262 122.762 21.2635 122.693 21.4869C122.624 21.6963 122.416 21.836 122.195 21.808ZM126.52 14.2269C125.732 15.4695 124.917 16.7539 125.18 18.7923C125.207 19.0157 125.069 19.2391 124.862 19.2949C124.544 19.3927 124.365 19.1414 124.309 19.0576C122.997 16.4188 121.795 13.6545 121.795 11.3647C121.795 9.73124 123.107 8.40489 124.724 8.40489C126.34 8.40489 127.653 9.73124 127.653 11.3647C127.653 12.4258 127.1 13.3054 126.52 14.2269Z" fill="white"/>
</g>
<defs>
<clipPath id="clip0_1_40">
<rect width="141" height="32" fill="white"/>
</clipPath>
</defs>
</svg>
