<svg width="183" height="41" viewBox="0 0 183 41" fill="none" xmlns="http://www.w3.org/2000/svg">
<g clip-path="url(#clip0_1_209)">
<path d="M37.7835 3.45247C37.7835 4.25744 37.4608 4.81198 37.0662 5.5454L19.3311 34.5602C30.6106 34.5602 33.677 24.829 35.1295 24.829C36.0979 24.829 37.8732 25.7055 37.8732 26.3495C37.8732 26.9935 36.0979 36.6353 35.7751 37.8517C35.2909 39.6942 34.5736 40.1772 32.9597 40.1772C21.8416 39.8552 12.6603 39.8552 1.52425 40.1772C0.806957 40.1772 0 38.4062 0 37.4403C0 36.6353 0.394512 35.9913 0.806957 35.3473L18.5421 6.40404C7.26262 6.40404 5.39765 16.1353 3.96306 16.1353C2.99471 16.1353 1.2194 15.2587 1.2194 14.6148C1.2194 13.9708 2.99471 4.32899 3.31749 3.11259C3.80167 1.27009 4.51896 0.787109 6.13288 0.787109C17.251 1.1091 25.2309 1.1091 36.3489 0.787109C37.0662 0.804998 37.7835 2.4865 37.7835 3.45247Z" fill="#34825B"/>
<path d="M82.8297 20.5C82.8297 32.3957 73.8097 41 61.3108 41C48.8119 41 39.792 32.3957 39.792 20.5C39.792 8.60428 48.8299 0 61.3108 0C73.7918 0 82.8297 8.60428 82.8297 20.5ZM55.5904 20.5C55.5904 31.1078 57.5271 36.1702 61.3108 36.1702C65.0946 36.1702 67.0313 31.1078 67.0313 20.5C67.0313 9.89223 65.0946 4.82984 61.3108 4.82984C57.5271 4.82984 55.5904 9.89223 55.5904 20.5Z" fill="#34825B"/>
<path d="M101.103 0.804974C102.071 0.804974 103.757 1.6815 103.757 2.32548V6.67234C107.863 3.0589 113.117 0 116.256 0C123.823 0 129.059 5.31283 129.059 13.3447V33.1113C129.059 36.4921 132.682 36.2417 132.682 37.5297C132.682 38.4956 131.803 40.1771 131.157 40.1771C124.791 39.8551 117.87 39.8551 111.504 40.1771C110.858 40.1771 109.979 38.4956 109.979 37.5297C109.979 36.2417 113.602 36.4921 113.602 33.0218V14.7042C113.602 10.6078 112.4 8.67583 109.818 8.67583C106.841 8.67583 103.775 14.3822 103.775 19.856V33.1113C103.775 36.4921 107.397 36.2417 107.397 37.5297C107.397 38.4956 106.518 40.1771 105.873 40.1771C99.5068 39.8551 92.5849 39.8551 86.2189 40.1771C85.5733 40.1771 84.6946 38.4956 84.6946 37.5297C84.6946 36.2417 88.317 36.4921 88.317 33.0218V11.6632C88.317 8.28229 84.6946 8.53272 84.6946 7.24476C84.6946 6.2788 85.5733 4.66885 86.2189 4.59729C94.414 3.77443 99.8116 0.804974 101.103 0.804974Z" fill="#34825B"/>
<path d="M181.35 35.3652C177.638 35.3652 176.67 33.8447 176.76 27.4943V2.32548C176.76 1.6815 174.984 0.804974 174.016 0.804974C173.048 0.804974 169.587 2.57592 164.189 3.77443C162.019 1.6815 157.823 0 153.232 0C141.953 0 134.062 8.51483 134.062 20.5C134.062 33.1113 140.59 41 151.152 41C154.38 41 158.558 37.7801 161.876 34.3277C163.077 38.9965 166.233 41 171.703 41C176.616 41 181.53 39.3901 182.91 38.0305C183.359 37.5476 182.157 35.3652 181.35 35.3652ZM146.508 12.0209C148.175 10.3573 150.901 10.3573 152.587 12.0209C155.008 14.4359 157.841 22.3425 157.948 22.6645C158.02 22.8791 157.966 23.1296 157.805 23.2906C157.626 23.4695 157.393 23.5052 157.177 23.4337C156.837 23.3085 148.911 20.5 146.508 18.0851C144.822 16.3857 144.84 13.6846 146.508 12.0209ZM158.594 27.9415C155.994 27.6017 154.344 28.6571 152.73 29.6767C151.547 30.428 150.417 31.1435 149.054 31.1435C146.956 31.1435 145.252 29.4442 145.252 27.3512C145.252 25.2583 146.956 23.5589 149.054 23.5589C150.435 23.5589 152.031 23.8988 153.95 24.5964C155.689 25.2225 157.446 26.0812 158.935 26.8146C159.204 26.9398 159.329 27.2439 159.24 27.5301C159.15 27.7984 158.881 27.9773 158.594 27.9415ZM164.207 18.2282C163.185 19.8202 162.127 21.466 162.467 24.0777C162.503 24.3639 162.324 24.6501 162.055 24.7216C161.643 24.8469 161.409 24.5249 161.338 24.4175C159.634 21.0366 158.074 17.4948 158.074 14.5611C158.074 12.4682 159.778 10.7688 161.876 10.7688C163.974 10.7688 165.677 12.4682 165.677 14.5611C165.677 15.9206 164.96 17.0476 164.207 18.2282Z" fill="#34825B"/>
</g>
<defs>
<clipPath id="clip0_1_209">
<rect width="183" height="41" fill="white"/>
</clipPath>
</defs>
</svg>
