<svg width="128" height="61" viewBox="0 0 128 61" fill="none" xmlns="http://www.w3.org/2000/svg">
<g clip-path="url(#clip0_53_222)">
<mask id="mask0_53_222" style="mask-type:luminance" maskUnits="userSpaceOnUse" x="82" y="14" width="43" height="34">
<path d="M82.9966 14.9988H124.88V47.5678H82.9966V14.9988Z" fill="white"/>
</mask>
<g mask="url(#mask0_53_222)">
<path d="M86.3484 36.5745C90.0632 32.0943 96.0243 32.1811 101.424 32.3116C102.935 32.355 104.404 32.3988 105.786 32.3116C108.205 32.1811 111.272 31.4853 114.339 30.3108C116.455 29.4841 118.572 28.4405 120.429 27.1787C117.103 32.5727 115.462 32.8338 110.84 34.0518C119.09 33.7907 121.164 28.2227 123.669 23.2638C120.516 26.3524 118.27 27.9182 114.037 29.5279C111.099 30.6586 108.119 31.3548 105.743 31.4853C104.404 31.5721 102.935 31.5287 101.424 31.4853C95.8081 31.3548 89.6312 31.2242 85.7006 36.0526L86.3484 36.5745ZM86.6942 46.7531C88.206 46.9708 89.6312 46.1879 90.2794 44.8394C90.8407 43.7082 90.668 42.4035 89.9767 41.4029C90.8842 42.6642 90.9703 44.361 90.1498 45.7095C89.1992 47.2753 87.2124 47.9277 85.5278 47.2319C80.6901 45.3178 83.9295 38.6191 87.6874 36.705C93.0868 33.9646 100.214 36.4439 106.175 36.1394C109.76 35.9655 112.87 35.4437 115.937 33.573C113.863 36.2266 112.395 38.6191 109.026 39.8804C106.952 40.6633 104.577 40.7071 101.942 39.9238C99.998 39.3586 96.629 38.0101 93.2595 39.7499C95.9377 37.6618 99.134 38.2274 102.158 39.1409C104.62 39.8371 106.78 39.7933 108.723 39.0975C110.408 38.4886 111.877 37.3574 113.173 35.8349C110.754 36.5311 108.421 36.8789 106.175 36.9661C100.473 37.2706 93.0437 34.8781 88.0333 37.4445C84.2318 39.402 81.7699 46.014 86.6942 46.7531ZM123.021 18.1746C121.941 23.2638 119.047 24.6123 116.326 26.1347C123.755 23.8727 123.799 18.0441 124.878 14.9992C118.14 21.6546 107.859 28.0922 98.5293 30.0497C105.959 30.4847 118.615 22.7853 123.021 18.1746Z" fill="#D4AF37"/>
</g>
<path d="M48.3668 30.978L47.4995 29.4738L46.6318 30.978L47.4995 32.4339L48.3668 30.978Z" fill="#D4AF37"/>
<path d="M58.1968 27.3874L57.3775 25.8827L56.5103 27.3874L57.3775 28.8429L58.1968 27.3874Z" fill="#D4AF37"/>
<path d="M81.7609 30.978L80.8936 29.4738L80.0264 30.978L80.8936 32.4339L81.7609 30.978Z" fill="#D4AF37"/>
<path d="M71.8824 27.3874L71.0151 25.8827L70.1958 27.3874L71.0151 28.8429L71.8824 27.3874Z" fill="#D4AF37"/>
<mask id="mask1_53_222" style="mask-type:luminance" maskUnits="userSpaceOnUse" x="42" y="14" width="45" height="34">
<path d="M42.1021 14.9988H86.2916V47.8851H42.1021V14.9988Z" fill="white"/>
</mask>
<g mask="url(#mask1_53_222)">
<path d="M79.6405 37.1896L76.5082 26.7565L70.5812 34.5691L64.9915 23.408L66.6781 20.0111L64.2206 15.0612L61.7148 20.0111L63.4013 23.408L57.8116 34.5207L51.9806 26.7565L48.8483 37.238L42.1021 29.4254L46.7281 44.1776L46.7765 44.2747V47.8657H81.6163V44.2747L81.7127 44.0321L86.2904 29.4254L79.6405 37.1896ZM79.9777 43.4496H76.171L79.014 40.1498L79.9777 43.4496ZM75.9302 29.9104L78.5324 38.4997L74.7736 42.8675L71.3521 36.025L75.9302 29.9104ZM73.4243 43.4496H65.7144L70.3404 37.3351L73.4243 43.4496ZM63.3049 20.0111L64.1722 18.3126L65.0395 20.0111L64.1722 21.7579L63.3049 20.0111ZM64.2206 25.0093L69.6175 35.8308L64.2206 43.0129L58.8233 35.7825L64.2206 25.0093ZM49.4268 40.1982L52.2214 43.4496H48.4631L49.4268 40.1982ZM62.7265 43.4496H54.9685L58.0524 37.238L62.7265 43.4496ZM52.5591 29.9104L57.0887 35.9279L53.6672 42.8675L49.9568 38.5485L52.5591 29.9104ZM45.5716 35.7337L48.3183 38.8881L47.451 41.7028L45.5716 35.7337ZM80.1706 46.4098H48.2218V44.9055H80.1706V46.4098ZM80.9414 41.6057L80.1226 38.8397L82.8208 35.7337L80.9414 41.6057Z" fill="#D4AF37"/>
</g>
<mask id="mask2_53_222" style="mask-type:luminance" maskUnits="userSpaceOnUse" x="3" y="14" width="43" height="34">
<path d="M3.37671 14.9988H45.2922V47.6736H3.37671V14.9988Z" fill="white"/>
</mask>
<g mask="url(#mask2_53_222)">
<mask id="mask3_53_222" style="mask-type:luminance" maskUnits="userSpaceOnUse" x="3" y="14" width="43" height="34">
<path d="M45.2922 14.9922H3.28198V47.6736H45.2922V14.9922Z" fill="white"/>
</mask>
<g mask="url(#mask3_53_222)">
<mask id="mask4_53_222" style="mask-type:luminance" maskUnits="userSpaceOnUse" x="3" y="14" width="43" height="34">
<path d="M3.37671 14.9988H45.1872V47.5678H3.37671V14.9988Z" fill="white"/>
</mask>
<g mask="url(#mask4_53_222)">
<path d="M41.9068 36.5746C38.1919 32.0945 32.2309 32.1813 26.8315 32.3118C25.3197 32.3552 23.851 32.399 22.4688 32.3118C20.0499 32.1813 16.9833 31.4855 13.9162 30.3109C11.7997 29.4842 9.68317 28.4406 7.82594 27.1789C11.1519 32.5729 12.7933 32.834 17.4153 34.052C9.16502 33.7909 7.09158 28.2229 4.58614 23.2639C7.73938 26.3526 9.98553 27.9184 14.2186 29.528C17.156 30.6588 20.1365 31.355 22.5123 31.4855C23.851 31.5723 25.3197 31.5289 26.8315 31.4855C32.4471 31.355 38.6239 31.2244 42.5546 36.0528L41.9068 36.5746ZM41.5609 46.7533C40.0491 46.971 38.6239 46.1881 37.9757 44.8396C37.4145 43.7084 37.5872 42.4037 38.278 41.4031C37.371 42.6644 37.2848 44.3612 38.1053 45.7097C39.0559 47.2755 41.0428 47.9279 42.7273 47.2321C47.565 45.318 44.3256 38.6193 40.5677 36.7052C35.1683 33.9648 28.0409 36.4441 22.0803 36.1396C18.4951 35.9657 15.3849 35.4439 12.3182 33.5731C14.3917 36.2268 15.86 38.6193 19.2294 39.8806C21.3029 40.6635 23.6782 40.7073 26.3133 39.924C28.2571 39.3588 31.6261 38.0103 34.9956 39.7501C32.3174 37.662 29.1211 38.2276 26.0971 39.1411C23.6352 39.8372 21.4756 39.7934 19.5318 39.0977C17.8473 38.4887 16.3786 37.3575 15.0826 35.8351C17.5014 36.5313 19.8341 36.8791 22.0803 36.9663C27.782 37.2708 35.2114 34.8783 40.2218 37.4447C44.0233 39.4022 46.4852 46.0142 41.5609 46.7533ZM5.23435 18.1748C6.31414 23.2639 9.20809 24.6124 11.9293 26.1349C4.49999 23.8729 4.4565 18.0443 3.37671 14.9994C10.1152 21.6547 20.3954 28.0924 29.7258 30.0498C22.2961 30.4849 9.64009 22.7855 5.23435 18.1748Z" fill="#D4AF37"/>
</g>
</g>
</g>
<mask id="mask5_53_222" style="mask-type:luminance" maskUnits="userSpaceOnUse" x="89" y="41" width="14" height="14">
<path d="M89.3857 41.3277H102.426V54.4426H89.3857V41.3277Z" fill="white"/>
</mask>
<g mask="url(#mask5_53_222)">
<path d="M96.0483 44.8442C96.068 45.0272 96.1033 45.2073 96.1533 45.3841C96.2034 45.5614 96.2682 45.7328 96.347 45.8989C96.4262 46.065 96.5185 46.2232 96.6243 46.3736C96.7297 46.524 96.8475 46.6641 96.9767 46.7942C97.1059 46.9243 97.2454 47.0429 97.3944 47.1491C97.5437 47.2557 97.7008 47.3486 97.8657 47.4284C98.0307 47.5077 98.2009 47.573 98.3769 47.6234C98.5525 47.6742 98.7314 47.7093 98.9131 47.7291C100.07 47.8452 101.231 47.8985 102.393 47.889C101.231 47.8795 100.07 47.9328 98.9131 48.0489C98.7314 48.0687 98.5525 48.1039 98.3769 48.1547C98.2009 48.2051 98.0307 48.2704 97.8657 48.3497C97.7008 48.4294 97.5437 48.5224 97.3944 48.629C97.2454 48.7352 97.1059 48.8537 96.9767 48.9839C96.8475 49.114 96.7297 49.2545 96.6243 49.4044C96.5185 49.5548 96.4262 49.7131 96.347 49.8791C96.2682 50.0452 96.2034 50.2167 96.1533 50.3939C96.1033 50.5708 96.068 50.7509 96.0483 50.9339C95.933 52.0994 95.8801 53.2678 95.8895 54.4386C95.899 53.2678 95.8465 52.0994 95.7308 50.9339C95.7111 50.7509 95.6762 50.5708 95.6257 50.3939C95.5757 50.2167 95.5113 50.0452 95.4321 49.8791C95.3529 49.7131 95.2606 49.5548 95.1552 49.4044C95.0493 49.2541 94.932 49.114 94.8024 48.9839C94.6731 48.8537 94.5341 48.7352 94.3847 48.629C94.2354 48.5224 94.0783 48.4294 93.9137 48.3497C93.7488 48.27 93.5782 48.2051 93.4026 48.1547C93.2266 48.1039 93.0477 48.0687 92.8659 48.0489C91.7086 47.9328 90.5488 47.8795 89.3857 47.889C90.5488 47.8985 91.7086 47.8452 92.8659 47.7291C93.0477 47.7093 93.2266 47.6738 93.4026 47.6234C93.5782 47.573 93.7488 47.5077 93.9137 47.4284C94.0783 47.3486 94.2354 47.2557 94.3847 47.1491C94.5341 47.0429 94.6731 46.9243 94.8024 46.7942C94.9316 46.6641 95.0493 46.5236 95.1548 46.3736C95.2606 46.2232 95.3529 46.065 95.4321 45.8989C95.5113 45.7328 95.5757 45.5614 95.6257 45.3841C95.6762 45.2073 95.7111 45.0272 95.7308 44.8442C95.8465 43.6787 95.899 42.5103 95.8895 41.3394C95.8801 42.5103 95.933 43.6787 96.0483 44.8442Z" fill="#D4AF37"/>
</g>
<mask id="mask6_53_222" style="mask-type:luminance" maskUnits="userSpaceOnUse" x="99" y="47" width="8" height="8">
<path d="M99.9058 47.8851H106.479V54.4938H99.9058V47.8851Z" fill="white"/>
</mask>
<g mask="url(#mask6_53_222)">
<path d="M103.31 49.6625C103.32 49.755 103.338 49.8459 103.363 49.9356C103.388 50.0252 103.421 50.112 103.461 50.1963C103.501 50.2801 103.548 50.3603 103.601 50.4363C103.655 50.5123 103.714 50.5834 103.779 50.6491C103.845 50.7152 103.916 50.7751 103.991 50.8288C104.067 50.8825 104.146 50.9296 104.23 50.9701C104.313 51.0102 104.399 51.0432 104.488 51.0688C104.577 51.0944 104.668 51.1122 104.76 51.1225C105.345 51.1812 105.932 51.2081 106.521 51.2031C105.932 51.1986 105.345 51.2254 104.76 51.2841C104.668 51.294 104.577 51.3122 104.488 51.3374C104.399 51.363 104.313 51.396 104.23 51.4365C104.146 51.4766 104.067 51.5237 103.991 51.5774C103.916 51.6315 103.845 51.6914 103.779 51.7571C103.714 51.8232 103.655 51.8939 103.601 51.9699C103.548 52.0463 103.501 52.1261 103.461 52.2103C103.421 52.2942 103.388 52.381 103.363 52.4706C103.338 52.5603 103.32 52.6516 103.31 52.7441C103.251 53.3337 103.225 53.9249 103.229 54.5178C103.234 53.9249 103.208 53.3337 103.149 52.7441C103.139 52.6516 103.121 52.5603 103.096 52.4706C103.071 52.381 103.038 52.2942 102.998 52.2103C102.958 52.1261 102.911 52.0463 102.858 51.9699C102.804 51.8939 102.745 51.8232 102.679 51.7571C102.614 51.6914 102.543 51.6315 102.468 51.5774C102.392 51.5237 102.313 51.4766 102.23 51.4361C102.146 51.396 102.06 51.363 101.971 51.3374C101.882 51.3122 101.791 51.294 101.699 51.2841C101.114 51.2254 100.527 51.1986 99.9382 51.2031C100.527 51.2081 101.114 51.1812 101.699 51.1225C101.791 51.1122 101.882 51.0944 101.971 51.0688C102.06 51.0432 102.146 51.0102 102.23 50.9701C102.313 50.9296 102.392 50.8829 102.468 50.8288C102.543 50.7751 102.614 50.7152 102.679 50.6491C102.745 50.5834 102.804 50.5123 102.858 50.4363C102.911 50.3603 102.958 50.2801 102.998 50.1963C103.038 50.112 103.071 50.0252 103.096 49.9356C103.121 49.8459 103.139 49.755 103.149 49.6625C103.208 49.0725 103.235 48.4813 103.23 47.8889C103.225 48.4813 103.251 49.0725 103.31 49.6625Z" fill="#D4AF37"/>
</g>
<path d="M100.836 43.122C100.842 43.1782 100.853 43.234 100.868 43.2889C100.884 43.3434 100.903 43.3963 100.928 43.4476C100.952 43.4992 100.981 43.5479 101.013 43.5942C101.046 43.6409 101.083 43.6843 101.123 43.7244C101.162 43.7644 101.205 43.8012 101.252 43.8338C101.298 43.8669 101.346 43.8958 101.397 43.9202C101.448 43.945 101.501 43.9648 101.555 43.9805C101.61 43.9962 101.664 44.0069 101.721 44.0131C102.078 44.0491 102.437 44.0656 102.796 44.0627C102.437 44.0594 102.078 44.0759 101.721 44.1119C101.664 44.1181 101.61 44.1288 101.555 44.1445C101.501 44.1602 101.448 44.1805 101.397 44.2048C101.346 44.2296 101.298 44.2581 101.252 44.2912C101.205 44.3238 101.162 44.3606 101.123 44.4007C101.082 44.4412 101.046 44.4845 101.013 44.5308C100.981 44.5771 100.952 44.6263 100.928 44.6775C100.903 44.7287 100.884 44.7816 100.868 44.8365C100.853 44.8911 100.842 44.9469 100.836 45.0035C100.8 45.3633 100.784 45.7244 100.787 46.0863C100.789 45.7244 100.773 45.3633 100.738 45.0035C100.732 44.9469 100.72 44.8911 100.705 44.8365C100.69 44.7816 100.67 44.7287 100.645 44.6775C100.621 44.6263 100.592 44.5771 100.56 44.5308C100.527 44.4845 100.491 44.4412 100.451 44.4007C100.411 44.3606 100.368 44.3238 100.322 44.2912C100.275 44.2581 100.227 44.2296 100.176 44.2048C100.125 44.1805 100.072 44.1602 100.018 44.1445C99.964 44.1288 99.9086 44.1181 99.8524 44.1119C99.4946 44.0759 99.1365 44.0594 98.7771 44.0627C99.1365 44.0656 99.4946 44.0491 99.8524 44.0131C99.9086 44.0069 99.9636 43.9962 100.018 43.9805C100.072 43.9648 100.125 43.9446 100.176 43.9202C100.227 43.8954 100.275 43.8669 100.321 43.8338C100.368 43.8012 100.411 43.7644 100.451 43.7244C100.49 43.6839 100.527 43.6405 100.559 43.5942C100.592 43.5479 100.62 43.4988 100.645 43.4476C100.669 43.3963 100.689 43.3434 100.705 43.2885C100.72 43.234 100.731 43.1782 100.737 43.122C100.773 42.7617 100.789 42.4006 100.787 42.0387C100.784 42.4006 100.8 42.7617 100.836 43.122Z" fill="#D4AF37"/>
<path d="M56.1601 52.4314V52.5157C55.9008 52.5401 55.7355 52.6409 55.6645 52.8181C55.5943 52.9945 55.5595 53.2164 55.5595 53.4841V57.1875C55.5595 57.3805 55.5714 57.5375 55.5956 57.6585C55.6206 57.7787 55.6604 57.8746 55.7154 57.9461C55.7711 58.0179 55.8421 58.0663 55.9287 58.0915C56.0148 58.1159 56.1195 58.1278 56.2421 58.1278C56.5383 58.1278 56.8189 58.0845 57.084 57.9973C57.3486 57.9105 57.5919 57.7899 57.8142 57.6354C58.0362 57.48 58.2364 57.2925 58.4148 57.0718C58.5929 56.8516 58.7472 56.605 58.8776 56.3315L58.9597 56.3778L58.1654 58.6864C58.14 58.6608 58.0936 58.6327 58.0259 58.6021C57.959 58.5711 57.8393 58.5559 57.6665 58.5559H53.9414V58.4716C54.1515 58.4286 54.3041 58.3344 54.3993 58.189C54.4944 58.0427 54.542 57.8172 54.542 57.5131V53.5485C54.542 53.4242 54.5359 53.3031 54.524 53.185C54.5117 53.0672 54.4838 52.9619 54.4403 52.8693C54.3976 52.776 54.3373 52.6983 54.2598 52.6363C54.183 52.5748 54.0768 52.5347 53.9414 52.5157V52.4314H56.1601Z" fill="#D4AF37"/>
<path d="M62.518 52.4314V52.5157C62.3514 52.5281 62.2193 52.5529 62.1208 52.59C62.0224 52.6276 61.9453 52.6942 61.8895 52.79C61.8337 52.8859 61.7947 53.0193 61.7729 53.1899C61.752 53.361 61.7356 53.5857 61.7237 53.8642L61.6023 56.2191C61.5965 56.2753 61.5941 56.3439 61.5941 56.424C61.5941 56.5046 61.5941 56.5728 61.5941 56.6289C61.5941 56.9277 61.6306 57.1685 61.704 57.3511C61.7783 57.5341 61.8895 57.6874 62.0371 57.8105C62.1725 57.9163 62.3391 58.0006 62.536 58.0634C62.7338 58.1254 62.9315 58.1559 63.1284 58.1559C63.2946 58.1559 63.4685 58.1344 63.6503 58.0915C63.8316 58.0477 64.015 57.9725 64.2 57.8667C64.3846 57.761 64.5356 57.6106 64.6529 57.4156C64.7699 57.2206 64.8285 56.9491 64.8285 56.6009C64.8285 56.5327 64.8285 56.4695 64.8285 56.4108C64.8285 56.3513 64.8253 56.272 64.8187 56.1728L64.7169 53.7997C64.7046 53.5333 64.6862 53.318 64.6611 53.1536C64.6369 52.9883 64.5939 52.8594 64.5315 52.7669C64.47 52.6735 64.3887 52.6095 64.287 52.5752C64.1861 52.5413 64.0527 52.5215 63.8866 52.5157V52.4314H65.8542V52.5157L65.8082 52.5239C65.7163 52.5496 65.6376 52.5764 65.5719 52.6049C65.5071 52.6326 65.4546 52.6772 65.4144 52.7388C65.375 52.8007 65.3475 52.8859 65.3323 52.9949C65.3167 53.1032 65.3094 53.2502 65.3094 53.4362C65.3094 53.518 65.3094 53.5973 65.3094 53.6741C65.3094 53.7514 65.3126 53.8307 65.3192 53.9121L65.4193 56.5182C65.4193 56.8719 65.3742 57.1685 65.2847 57.4073C65.1961 57.6453 65.0624 57.8481 64.8843 58.0155C64.742 58.1468 64.5922 58.2543 64.4347 58.3377C64.278 58.4216 64.1196 58.4898 63.9588 58.5426C63.7988 58.5943 63.6388 58.6294 63.478 58.6484C63.318 58.667 63.1678 58.6765 63.0267 58.6765C62.8975 58.6765 62.7526 58.6686 62.5918 58.6534C62.4318 58.6377 62.2702 58.6112 62.1061 58.574C61.9428 58.5368 61.7877 58.4906 61.64 58.4352C61.4923 58.379 61.366 58.3109 61.2609 58.2303C61.0451 58.0683 60.8806 57.8824 60.767 57.6717C60.6529 57.4602 60.5963 57.1966 60.5963 56.8801C60.5963 56.757 60.5971 56.6021 60.5996 56.4158C60.6029 56.2298 60.6103 56.0497 60.6226 55.8754L60.7243 53.8559C60.7309 53.7878 60.7342 53.7179 60.7342 53.646C60.7342 53.5746 60.7342 53.5047 60.7342 53.4362C60.7342 53.2502 60.7247 53.1015 60.7063 52.99C60.6874 52.8788 60.6562 52.7908 60.6127 52.7256C60.5701 52.6595 60.5114 52.6128 60.4371 52.5851C60.3637 52.5578 60.2685 52.5347 60.1516 52.5157V52.4314H62.518Z" fill="#D4AF37"/>
<path d="M69.8932 52.4314V52.5157C69.72 52.5467 69.6109 52.5933 69.565 52.6561C69.519 52.7181 69.496 52.7797 69.496 52.8412C69.496 52.9032 69.5129 52.9792 69.5469 53.0693C69.5806 53.1598 69.647 53.2759 69.7455 53.418L70.3822 54.3765L70.9746 53.5304C71.005 53.4866 71.0419 53.432 71.0846 53.3668C71.128 53.3019 71.1699 53.2354 71.2093 53.1668C71.2495 53.0986 71.2835 53.0292 71.311 52.9586C71.3393 52.8871 71.3537 52.8198 71.3537 52.757C71.3537 52.6768 71.3258 52.6194 71.27 52.5851C71.2142 52.5512 71.1436 52.5281 71.0583 52.5157V52.4314H72.8503V52.5157C72.7276 52.5281 72.6214 52.5512 72.5319 52.5851C72.4421 52.6194 72.3539 52.6739 72.2677 52.7487C72.1812 52.8226 72.0889 52.9235 71.9904 53.0511C71.8919 53.1779 71.7721 53.3403 71.631 53.5386L70.7153 54.8508L72.6665 57.8105C72.7888 57.9969 72.9114 58.146 73.0341 58.2584C73.1576 58.3699 73.3057 58.441 73.4788 58.4716V58.5559H71.0583V58.4716C71.1806 58.4596 71.2852 58.4245 71.3717 58.3658C71.4579 58.3063 71.5014 58.2146 71.5014 58.0898C71.5014 57.9787 71.4702 57.8643 71.4078 57.7461C71.3463 57.6283 71.3036 57.554 71.2798 57.523L70.0868 55.7266L69.2187 57.0289C69.0456 57.29 68.9143 57.5077 68.8249 57.6816C68.7363 57.8547 68.6919 58.0035 68.6919 58.1278C68.6919 58.2394 68.7285 58.3212 68.8019 58.3741C68.8761 58.427 68.975 58.4596 69.0989 58.4716V58.5559H67.2134V58.4716H67.2216C67.32 58.453 67.4107 58.4187 67.494 58.3691C67.5769 58.3195 67.654 58.2596 67.7254 58.189C67.7964 58.1175 67.8591 58.0398 67.9141 57.956C67.9699 57.8725 68.0257 57.7932 68.0815 57.718L69.7914 55.2523L68.7559 53.6791C68.5894 53.4312 68.4524 53.2345 68.344 53.0891C68.2366 52.9429 68.1397 52.8293 68.0536 52.7487C67.967 52.6673 67.885 52.6128 67.8074 52.5851C67.7307 52.5578 67.6405 52.5347 67.5367 52.5157V52.4314H69.8932Z" fill="#D4AF37"/>
<mask id="mask7_53_222" style="mask-type:luminance" maskUnits="userSpaceOnUse" x="21" y="41" width="18" height="14">
<path d="M21.8191 41.3277H38.912V54.4938H21.8191V41.3277Z" fill="white"/>
</mask>
<g mask="url(#mask7_53_222)">
<mask id="mask8_53_222" style="mask-type:luminance" maskUnits="userSpaceOnUse" x="21" y="41" width="18" height="14">
<path d="M38.9908 41.3277H21.7666V54.5483H38.9908V41.3277Z" fill="white"/>
</mask>
<g mask="url(#mask8_53_222)">
<mask id="mask9_53_222" style="mask-type:luminance" maskUnits="userSpaceOnUse" x="25" y="41" width="14" height="14">
<path d="M25.8625 41.3278H38.912V54.4426H25.8625V41.3278Z" fill="white"/>
</mask>
<g mask="url(#mask9_53_222)">
<path d="M32.2881 44.844C32.268 45.027 32.2331 45.2071 32.183 45.384C32.1326 45.5612 32.0682 45.7326 31.989 45.8987C31.9098 46.0648 31.8175 46.223 31.7121 46.3734C31.6062 46.5238 31.4889 46.6639 31.3597 46.794C31.23 46.9242 31.0909 47.0427 30.9416 47.1489C30.7923 47.2555 30.6356 47.3485 30.4706 47.4282C30.3057 47.5075 30.135 47.5728 29.9594 47.6232C29.7834 47.674 29.6046 47.7091 29.4228 47.729C28.2659 47.8451 27.1057 47.8984 25.9426 47.8888C27.1057 47.8793 28.2659 47.9326 29.4228 48.0487C29.6046 48.0686 29.7834 48.1037 29.9594 48.1545C30.135 48.2049 30.3057 48.2702 30.4706 48.3495C30.6356 48.4292 30.7923 48.5222 30.9416 48.6288C31.0909 48.735 31.23 48.8535 31.3592 48.9837C31.4889 49.1138 31.6062 49.2543 31.7121 49.4043C31.8175 49.5546 31.9098 49.7129 31.989 49.879C32.0682 50.0451 32.1326 50.2165 32.183 50.3937C32.2331 50.5706 32.268 50.7507 32.2881 50.9337C32.4033 52.0992 32.4563 53.2676 32.4464 54.4384C32.437 53.2676 32.4899 52.0992 32.6052 50.9337C32.6249 50.7507 32.6602 50.5706 32.7102 50.3937C32.7603 50.2165 32.8251 50.0451 32.9039 49.879C32.983 49.7129 33.0753 49.5546 33.1812 49.4043C33.287 49.2539 33.4044 49.1138 33.5336 48.9837C33.6628 48.8535 33.8023 48.735 33.9512 48.6288C34.1006 48.5222 34.2577 48.4292 34.4226 48.3495C34.5876 48.2698 34.7578 48.2049 34.9338 48.1545C35.1094 48.1037 35.2883 48.0686 35.47 48.0487C36.6273 47.9326 37.7876 47.8793 38.9502 47.8888C37.7876 47.8984 36.6273 47.8451 35.47 47.729C35.2883 47.7091 35.1094 47.6736 34.9338 47.6232C34.7578 47.5728 34.5876 47.5075 34.4226 47.4282C34.2577 47.3485 34.1006 47.2555 33.9517 47.1489C33.8023 47.0427 33.6628 46.9242 33.5336 46.794C33.4044 46.6639 33.287 46.5234 33.1812 46.3734C33.0753 46.223 32.983 46.0648 32.9043 45.8987C32.8251 45.7326 32.7603 45.5612 32.7102 45.384C32.6602 45.2071 32.6249 45.027 32.6052 44.844C32.4899 43.6785 32.437 42.5101 32.4464 41.3393C32.4563 42.5101 32.4033 43.6785 32.2881 44.844Z" fill="#D4AF37"/>
</g>
<mask id="mask10_53_222" style="mask-type:luminance" maskUnits="userSpaceOnUse" x="21" y="47" width="8" height="8">
<path d="M21.8572 47.8851H28.4882V54.4938H21.8572V47.8851Z" fill="white"/>
</mask>
<g mask="url(#mask10_53_222)">
<path d="M25.0268 49.6625C25.0165 49.755 24.9989 49.8459 24.9734 49.9355C24.948 50.0252 24.9152 50.112 24.8754 50.1962C24.8352 50.2801 24.7884 50.3603 24.7351 50.4363C24.6817 50.5123 24.6222 50.5834 24.5566 50.649C24.4914 50.7151 24.4208 50.7751 24.3453 50.8288C24.2698 50.8825 24.1902 50.9296 24.107 50.9701C24.0233 51.0101 23.9371 51.0432 23.8481 51.0688C23.7591 51.0944 23.6688 51.1122 23.5769 51.1225C22.9911 51.1812 22.404 51.208 21.8157 51.2031C22.404 51.1985 22.9911 51.2254 23.5769 51.284C23.6688 51.294 23.7591 51.3121 23.8481 51.3373C23.9371 51.363 24.0233 51.396 24.107 51.4365C24.1902 51.4766 24.2698 51.5237 24.3453 51.5774C24.4208 51.6315 24.4914 51.6914 24.5566 51.7571C24.6222 51.8232 24.6817 51.8938 24.7351 51.9699C24.7884 52.0463 24.8352 52.126 24.8754 52.2103C24.9152 52.2942 24.948 52.3809 24.9734 52.4706C24.9989 52.5603 25.0165 52.6516 25.0268 52.7441C25.085 53.3337 25.1117 53.9249 25.1068 54.5177C25.1018 53.9249 25.1289 53.3337 25.1872 52.7441C25.197 52.6516 25.2151 52.5603 25.2401 52.4706C25.2655 52.3809 25.2983 52.2942 25.3385 52.2103C25.3783 52.126 25.4251 52.0463 25.4784 51.9699C25.5322 51.8938 25.5917 51.8232 25.6569 51.7571C25.7225 51.6914 25.7927 51.6315 25.8686 51.5774C25.9441 51.5237 26.0233 51.4766 26.107 51.4361C26.1902 51.396 26.2764 51.363 26.3654 51.3373C26.4544 51.3121 26.5451 51.294 26.637 51.284C27.2224 51.2254 27.8095 51.1985 28.3982 51.2031C27.8095 51.208 27.2224 51.1812 26.637 51.1225C26.5451 51.1122 26.4544 51.0944 26.3654 51.0688C26.2764 51.0432 26.1902 51.0101 26.107 50.9701C26.0233 50.9296 25.9441 50.8829 25.8686 50.8288C25.7927 50.7751 25.7225 50.7151 25.6569 50.649C25.5917 50.5834 25.5322 50.5123 25.4784 50.4363C25.4251 50.3603 25.3783 50.2801 25.3385 50.1962C25.2983 50.112 25.2655 50.0252 25.2401 49.9355C25.2151 49.8459 25.197 49.755 25.1872 49.6625C25.1285 49.0725 25.1018 48.4813 25.1063 47.8888C25.1113 48.4813 25.0846 49.0725 25.0268 49.6625Z" fill="#D4AF37"/>
</g>
<path d="M27.5007 43.122C27.4945 43.1782 27.4838 43.234 27.4682 43.2889C27.4527 43.3434 27.4326 43.3963 27.4083 43.4476C27.3837 43.4992 27.3554 43.5479 27.3226 43.5942C27.2898 43.6409 27.2537 43.6843 27.2139 43.7244C27.1737 43.7644 27.1306 43.8012 27.0847 43.8338C27.0387 43.8669 26.9899 43.8958 26.939 43.9202C26.8881 43.945 26.8356 43.9648 26.7811 43.9805C26.7269 43.9962 26.6715 44.0069 26.6153 44.0131C26.258 44.0491 25.8994 44.0656 25.54 44.0627C25.8994 44.0594 26.258 44.0759 26.6153 44.1119C26.6715 44.1181 26.7269 44.1288 26.7811 44.1445C26.8356 44.1602 26.8881 44.1805 26.939 44.2048C26.9899 44.2296 27.0387 44.2581 27.0847 44.2912C27.1306 44.3238 27.1737 44.3606 27.2139 44.4007C27.2537 44.4412 27.2898 44.4845 27.3226 44.5308C27.3554 44.5771 27.3837 44.6263 27.4083 44.6775C27.4326 44.7287 27.4527 44.7816 27.4682 44.8365C27.4838 44.8911 27.4945 44.9469 27.5007 45.0035C27.5363 45.3633 27.5523 45.7244 27.5495 46.0863C27.5466 45.7244 27.563 45.3633 27.5987 45.0035C27.6049 44.9469 27.6155 44.8911 27.6311 44.8365C27.6467 44.7816 27.6664 44.7287 27.691 44.6775C27.7152 44.6263 27.7439 44.5771 27.7768 44.5308C27.8092 44.4845 27.8457 44.4412 27.8855 44.4007C27.9253 44.3606 27.9683 44.3238 28.0147 44.2912C28.0607 44.2581 28.1091 44.2296 28.1603 44.2048C28.2112 44.1805 28.2637 44.1602 28.3183 44.1445C28.3724 44.1288 28.4278 44.1181 28.484 44.1119C28.8414 44.0759 29.1999 44.0594 29.5593 44.0627C29.1999 44.0656 28.8414 44.0491 28.484 44.0131C28.4278 44.0069 28.3724 43.9962 28.3183 43.9805C28.2637 43.9648 28.2112 43.9446 28.1603 43.9202C28.1095 43.8954 28.0607 43.8669 28.0147 43.8338C27.9688 43.8012 27.9257 43.7644 27.8859 43.7244C27.8457 43.6839 27.8096 43.6405 27.7768 43.5942C27.7443 43.5479 27.7156 43.4988 27.6914 43.4476C27.6668 43.3963 27.6467 43.3434 27.6315 43.2885C27.6159 43.234 27.6053 43.1782 27.5991 43.122C27.563 42.7617 27.5466 42.4006 27.5495 42.0387C27.5528 42.4006 27.5363 42.7617 27.5007 43.122Z" fill="#D4AF37"/>
</g>
</g>
<mask id="mask11_53_222" style="mask-type:luminance" maskUnits="userSpaceOnUse" x="24" y="-1" width="82" height="18">
<path d="M105.997 -0.0264282H24.6023V16.5787H105.997V-0.0264282Z" fill="white"/>
</mask>
<g mask="url(#mask11_53_222)">
<path d="M33.086 13.3765L30.4587 9.14755H27.3063V13.3765H25.936V3.19H30.695C31.8339 3.19 32.7127 3.44698 33.3321 3.9601C33.9524 4.47364 34.2626 5.18797 34.2626 6.1035C34.2626 6.86038 34.0435 7.49662 33.6062 8.01223C33.1684 8.52783 32.5645 8.85339 31.7945 8.9889L34.6647 13.3765H33.086ZM32.8841 6.11837C32.8841 5.52592 32.6843 5.07394 32.2852 4.76326C31.8856 4.45257 31.3104 4.29723 30.5588 4.29723H27.3063V8.0552H30.6162C31.3391 8.0552 31.8979 7.88581 32.2917 7.5462C32.6864 7.20701 32.8841 6.73107 32.8841 6.11837Z" fill="#D4AF37"/>
<path d="M52.3419 8.23698C52.3419 9.30124 52.1393 10.2341 51.7348 11.0348C51.3311 11.8346 50.7505 12.449 49.9936 12.8774C49.2375 13.3063 48.3452 13.5203 47.3171 13.5203C46.2775 13.5203 45.3811 13.3087 44.6275 12.8857C43.8734 12.4618 43.2982 11.8487 42.9011 11.0464C42.504 10.2432 42.3054 9.30702 42.3054 8.23698C42.3054 6.60754 42.7477 5.33422 43.633 4.41621C44.5192 3.49738 45.7516 3.03796 47.3302 3.03796C48.3596 3.03796 49.2523 3.24412 50.0084 3.65603C50.7641 4.06835 51.3417 4.66741 51.7413 5.45403C52.1417 6.23984 52.3419 7.16735 52.3419 8.23698ZM50.9421 8.23698C50.9421 6.96904 50.6271 5.97377 49.9969 5.25077C49.3676 4.52818 48.479 4.16668 47.3302 4.16668C46.1725 4.16668 45.2777 4.52363 44.6455 5.23755C44.0141 5.95063 43.6987 6.95045 43.6987 8.23698C43.6987 9.51401 44.0178 10.527 44.657 11.2761C45.2958 12.0255 46.1823 12.3998 47.3171 12.3998C48.4843 12.3998 49.3803 12.0375 50.0051 11.3124C50.6295 10.5878 50.9421 9.56235 50.9421 8.23698Z" fill="#D4AF37"/>
<path d="M64.8854 9.15416V13.3765H63.5217V9.15416L59.6309 3.19H61.139L64.2175 8.04198L67.283 3.19H68.7911L64.8854 9.15416Z" fill="#D4AF37"/>
<path d="M83.7538 13.3765L82.5986 10.3986H77.9889L76.8271 13.3765H75.4043L79.5331 3.19H81.0905L85.1536 13.3765H83.7538ZM80.2946 4.23113L80.2289 4.43439C80.1095 4.83432 79.9323 5.34744 79.6972 5.97295L78.4057 9.32107H82.1883L80.8902 5.95973C80.7557 5.62714 80.6215 5.25077 80.4882 4.83101L80.2946 4.23113Z" fill="#D4AF37"/>
<path d="M92.6511 13.3765V3.19H94.0214V12.2494H99.1332V13.3765H92.6511Z" fill="#D4AF37"/>
</g>
</g>
<defs>
<clipPath id="clip0_53_222">
<rect width="128" height="61" fill="white"/>
</clipPath>
</defs>
</svg>
