<svg width="180" height="180" viewBox="0 0 180 180" fill="none" xmlns="http://www.w3.org/2000/svg">
<path d="M175.512 167.181C167.701 167.181 165.663 163.991 165.852 150.671V97.8778C165.852 96.5271 162.116 94.6885 160.078 94.6885C158.04 94.6885 150.757 98.4031 139.398 100.917C134.832 96.5271 126.001 93 116.341 93C92.6042 93 76 110.86 76 136C76 162.453 89.7362 179 111.963 179C118.756 179 127.549 172.246 134.53 165.004C137.058 174.798 143.7 179 155.21 179C165.55 179 175.89 175.623 178.795 172.771C179.739 171.758 177.21 167.181 175.512 167.181ZM102.189 118.215C105.699 114.725 111.435 114.725 114.982 118.215C120.077 123.28 126.039 139.865 126.266 140.54C126.416 140.99 126.303 141.516 125.964 141.853C125.586 142.229 125.096 142.304 124.643 142.154C123.926 141.891 107.246 136 102.189 130.935C98.6421 127.37 98.6799 121.704 102.189 118.215ZM127.624 151.609C122.152 150.896 118.68 153.11 115.284 155.249C112.793 156.825 110.416 158.325 107.548 158.325C103.133 158.325 99.5478 154.761 99.5478 150.371C99.5478 145.981 103.133 142.416 107.548 142.416C110.454 142.416 113.812 143.129 117.85 144.592C121.511 145.906 125.209 147.707 128.341 149.245C128.907 149.508 129.171 150.146 128.983 150.746C128.794 151.309 128.228 151.684 127.624 151.609ZM139.436 131.235C137.285 134.574 135.058 138.026 135.775 143.504C135.851 144.105 135.473 144.705 134.907 144.855C134.039 145.118 133.549 144.442 133.398 144.217C129.813 137.126 126.53 129.696 126.53 123.543C126.53 119.153 130.115 115.588 134.53 115.588C138.945 115.588 142.53 119.153 142.53 123.543C142.53 126.394 141.021 128.758 139.436 131.235Z" fill="#34825B"/>
<path d="M99 46C99 63.9887 112.623 77 131.5 77C150.377 77 164 63.9887 164 46C164 28.0113 150.35 15 131.5 15C112.65 15 99 28.0113 99 46ZM140.14 46C140.14 62.041 137.215 69.6963 131.5 69.6963C125.785 69.6963 122.86 62.041 122.86 46C122.86 29.959 125.785 22.3037 131.5 22.3037C137.215 22.3037 140.14 29.959 140.14 46Z" fill="#EB671D"/>
<path d="M27.935 105.162C29.3475 105.162 31.8064 106.427 31.8064 107.357V113.632C37.7967 108.416 45.4611 104 50.0389 104C61.0777 104 68.716 111.67 68.716 123.264V151.8C68.716 156.68 74 156.319 74 158.178C74 159.573 72.7182 162 71.7765 162C62.4903 161.535 52.3931 161.535 43.1069 162C42.1652 162 40.8834 159.573 40.8834 158.178C40.8834 156.319 46.1674 156.68 46.1674 151.671V125.227C46.1674 119.313 44.4148 116.524 40.648 116.524C36.3057 116.524 31.8326 124.762 31.8326 132.664V151.8C31.8326 156.68 37.1166 156.319 37.1166 158.178C37.1166 159.573 35.8348 162 34.8931 162C25.6069 161.535 15.5097 161.535 6.22347 162C5.28177 162 4 159.573 4 158.178C4 156.319 9.28401 156.68 9.28401 151.671V120.837C9.28401 115.956 4 116.318 4 114.459C4 113.064 5.28177 110.74 6.22347 110.637C18.1779 109.449 26.0516 105.162 27.935 105.162Z" fill="#EB671D"/>
<path d="M85.7988 7.95459C85.7988 9.75295 85.0743 10.9918 84.1889 12.6303L44.3854 77.4514C69.7003 77.4514 76.5824 55.7112 79.8423 55.7112C82.0156 55.7112 86 57.6694 86 59.1081C86 60.5468 82.0156 82.0872 81.2912 84.8047C80.2045 88.921 78.5947 90 74.9725 90C50.0199 89.2807 29.4138 89.2807 4.42093 90C2.81108 90 1 86.0436 1 83.8856C1 82.0872 1.88542 80.6485 2.81108 79.2098L42.6146 14.5486C17.2997 14.5486 13.1141 36.2888 9.89441 36.2888C7.72112 36.2888 3.73674 34.3306 3.73674 32.8919C3.73674 31.4532 7.72112 9.91281 8.44555 7.19528C9.5322 3.07902 11.142 2 14.7642 2C39.7169 2.71935 57.6264 2.71935 82.5791 2C84.1889 2.03996 85.7988 5.79655 85.7988 7.95459Z" fill="#34825B"/>
</svg>
